<svg width="88" height="88" viewBox="0 0 88 88" fill="none" xmlns="http://www.w3.org/2000/svg">
<path fill-rule="evenodd" clip-rule="evenodd" d="M25.4361 21.433C25.6958 21.0719 25.9844 20.6298 26.3523 20.0336C26.4867 19.8158 26.8533 19.211 27.1262 18.7607C27.2719 18.5204 27.3908 18.3242 27.4336 18.2542C30.4732 13.2821 32.6828 11 36.667 11H51.3337C55.3179 11 57.5274 13.2821 60.567 18.2542C60.6098 18.3241 60.7286 18.5202 60.8741 18.7602C61.1471 19.2105 61.5139 19.8157 61.6484 20.0336C62.0163 20.6298 62.3048 21.0719 62.5646 21.433C62.7359 21.6712 62.8855 21.8604 63.0076 22H73.3337C79.4088 22 84.3337 26.9249 84.3337 33V66C84.3337 72.0751 79.4088 77 73.3337 77H14.667C8.59186 77 3.66699 72.0751 3.66699 66V33C3.66699 26.9249 8.59186 22 14.667 22H24.993C25.1151 21.8604 25.2648 21.6712 25.4361 21.433ZM13.0374 28.2857C10.8998 28.2857 9.16699 30.0446 9.16699 32.2143V67.5714C9.16699 69.7411 10.8998 71.5 13.0374 71.5H74.9633C77.1008 71.5 78.8337 69.7411 78.8337 67.5714V32.2143C78.8337 30.0446 77.1008 28.2857 74.9633 28.2857H63.3522C60.7809 28.2857 59.0469 26.8573 57.312 24.4092C56.9129 23.8459 56.5174 23.2309 56.0415 22.4482C55.8785 22.18 55.4551 21.4709 55.1646 20.9844L55.1646 20.9843C55.0269 20.7539 54.9192 20.5734 54.883 20.5134C53.1325 17.6068 52.0767 16.5 51.7411 16.5H36.2596C35.9239 16.5 34.8682 17.6068 33.1176 20.5134C33.0815 20.5734 32.9737 20.7539 32.8361 20.9843L32.8361 20.9844L32.835 20.9861C32.5446 21.4726 32.122 22.1803 31.9591 22.4482C31.4832 23.2309 31.0878 23.8459 30.6886 24.4092C28.9538 26.8573 27.2197 28.2857 24.6485 28.2857H13.0374ZM73.3337 36.6667C73.3337 38.6917 71.6921 40.3333 69.667 40.3333C67.642 40.3333 66.0004 38.6917 66.0004 36.6667C66.0004 34.6416 67.642 33 69.667 33C71.6921 33 73.3337 34.6416 73.3337 36.6667ZM27.5003 47.6667C27.5003 57.7919 33.8751 64.1667 44.0003 64.1667C54.1255 64.1667 60.5003 57.7919 60.5003 47.6667C60.5003 37.5415 54.1255 31.1667 44.0003 31.1667C33.8751 31.1667 27.5003 37.5415 27.5003 47.6667ZM55.0004 47.6666C55.0004 53.7417 50.0755 58.6666 44.0004 58.6666C37.9252 58.6666 33.0004 53.7417 33.0004 47.6666C33.0004 41.5915 37.9252 36.6666 44.0004 36.6666C50.0755 36.6666 55.0004 41.5915 55.0004 47.6666Z" fill="#9F9F9F"/>
</svg>
