<svg width="60" height="60" viewBox="0 0 60 60" fill="none" xmlns="http://www.w3.org/2000/svg">
<circle cx="30" cy="30" r="30" fill="#84CD8B"/>
<path d="M30.6375 14C25.9698 14 22.186 17.7127 22.186 22.2923C22.186 26.8721 25.9698 30.585 30.6375 30.585C35.3051 30.585 39.0889 26.8721 39.0889 22.2923C39.0889 17.7127 35.3051 14 30.6375 14ZM30.6375 25.7204C28.708 25.7204 27.1438 24.1856 27.1438 22.2925C27.1438 20.3993 28.708 18.8646 30.6375 18.8646C32.5669 18.8646 34.1311 20.3993 34.1311 22.2925C34.1311 24.1856 32.5669 25.7204 30.6375 25.7204Z" fill="white"/>
<path d="M33.6213 37.1832C37.0048 36.5069 39.0323 34.9348 39.1396 34.8504C40.1296 34.0714 40.2887 32.6523 39.4947 31.6808C38.7008 30.7094 37.2546 30.5533 36.2643 31.3323C36.2434 31.3489 34.0809 32.9765 30.5228 32.9789C26.9648 32.9765 24.7566 31.3489 24.7357 31.3323C23.7454 30.5533 22.2992 30.7094 21.5053 31.6808C20.7113 32.6523 20.8704 34.0714 21.8604 34.8504C21.9692 34.936 24.0804 36.5491 27.5587 37.2095L22.711 42.1803C21.8301 43.0767 21.8566 44.504 22.7702 45.3684C23.2161 45.7903 23.7908 46 24.3651 46C24.9672 46 25.5686 45.7692 26.0195 45.3103L30.5229 40.6033L35.4812 45.3408C36.3796 46.2208 37.8343 46.2194 38.731 45.3383C39.6277 44.457 39.6266 43.0294 38.7285 42.1496L33.6213 37.1832Z" fill="white"/>
<path d="M30.5226 32.9788C30.517 32.9788 30.5281 32.9789 30.5226 32.979C30.5172 32.9789 30.5282 32.9788 30.5226 32.9788Z" fill="white"/>
</svg>
