<svg width="104" height="104" viewBox="0 0 104 104" fill="none" xmlns="http://www.w3.org/2000/svg">
<rect x="1" y="1" width="102" height="102" rx="13" fill="#FBF2E7" stroke="#EBEBEB" stroke-width="2"/>
<g clip-path="url(#clip0)">
<path d="M63.9885 82.5883H56.8194C55.8299 82.5883 55.0271 81.786 55.0271 80.796V47.3401C55.0271 46.3502 55.8299 45.5479 56.8194 45.5479H63.9885C64.9784 45.5479 65.7808 46.3502 65.7808 47.3401V80.796C65.7808 81.786 64.9784 82.5883 63.9885 82.5883Z" fill="#00CA33"/>
<path d="M47.1811 82.5883H40.012C39.0221 82.5883 38.2197 81.786 38.2197 80.796V56.899C38.2197 55.909 39.0221 55.1067 40.012 55.1067H47.1811C48.1706 55.1067 48.9734 55.909 48.9734 56.899V80.796C48.9734 81.786 48.1706 82.5883 47.1811 82.5883Z" fill="#00CA33"/>
<path d="M80.7961 82.5883H73.627C72.637 82.5883 71.8347 81.786 71.8347 80.796V37.7813C71.8347 36.7913 72.637 35.989 73.627 35.989H80.7961C81.7861 35.989 82.5884 36.7913 82.5884 37.7813V80.796C82.5884 81.786 81.7861 82.5883 80.7961 82.5883Z" fill="#00CA33"/>
<path d="M63.9884 82.5882H60.4038V45.5477H63.9884C64.9783 45.5477 65.7806 46.3501 65.7806 47.34V80.7959C65.7806 81.7858 64.9783 82.5882 63.9884 82.5882Z" fill="#2DB124"/>
<path d="M47.181 82.5882H43.5964V55.1066H47.181C48.1705 55.1066 48.9733 55.9089 48.9733 56.8988V80.7959C48.9733 81.7859 48.1705 82.5882 47.181 82.5882Z" fill="#2DB124"/>
<path d="M80.796 82.5883H77.2114V35.989H80.796C81.7859 35.989 82.5883 36.7913 82.5883 37.7813V80.796C82.5883 81.786 81.7859 82.5883 80.796 82.5883Z" fill="#2DB124"/>
<path d="M57.8073 27.8014L50.6382 21.8271C50.6372 21.8262 50.6358 21.8253 50.6349 21.8243C50.6232 21.815 50.6106 21.8066 50.599 21.7973C50.5681 21.773 50.5373 21.7487 50.5051 21.7268C50.4879 21.7151 50.4697 21.7039 50.4515 21.6927C50.4239 21.675 50.3959 21.6577 50.3679 21.6418C50.3478 21.6302 50.3268 21.6199 50.3063 21.6092C50.2788 21.5952 50.2508 21.5816 50.2228 21.569C50.2013 21.5592 50.1794 21.5499 50.1569 21.541C50.128 21.5294 50.0986 21.5191 50.0692 21.5088C50.0473 21.5014 50.0258 21.4939 50.0039 21.4874C49.9661 21.4762 49.9278 21.4668 49.8895 21.458C49.8755 21.4547 49.8615 21.4505 49.847 21.4477C49.7938 21.4369 49.7406 21.429 49.6869 21.4229C49.6711 21.4215 49.6552 21.4206 49.6393 21.4192C49.5983 21.4159 49.5577 21.4136 49.5166 21.4131C49.5077 21.4131 49.4993 21.4117 49.4909 21.4117C49.4811 21.4117 49.4718 21.4131 49.4624 21.4131C49.4223 21.4136 49.3826 21.4159 49.343 21.4192C49.3252 21.4206 49.3079 21.4215 49.2907 21.4234C49.2459 21.4285 49.2015 21.4355 49.1572 21.4439C49.1465 21.4458 49.1357 21.4472 49.1255 21.4491C49.0741 21.4598 49.0232 21.4734 48.9724 21.4888C48.9514 21.4948 48.9308 21.5028 48.9103 21.5098C48.8799 21.52 48.8496 21.5308 48.8197 21.5429C48.7973 21.5518 48.7754 21.562 48.753 21.5718C48.7259 21.5844 48.6989 21.597 48.6718 21.611C48.6503 21.6222 48.6284 21.6339 48.6069 21.646C48.5808 21.661 48.5551 21.6769 48.5294 21.6932C48.5094 21.7058 48.4888 21.7184 48.4697 21.7324C48.4627 21.7371 48.4557 21.7408 48.4491 21.7455L40.0852 27.7197C39.2796 28.2952 39.0934 29.4145 39.6688 30.2201C40.0184 30.7097 40.5692 30.9706 41.1288 30.9706C41.4891 30.9706 41.8532 30.8623 42.1687 30.6364L47.4265 26.881C46.6573 32.0324 44.2751 36.7824 40.529 40.5285C35.9055 45.152 29.7525 47.6985 23.2041 47.6985C22.2142 47.6985 21.4119 48.5008 21.4119 49.4908C21.4119 50.4807 22.2142 51.2831 23.2041 51.2831C30.7098 51.2831 37.7631 48.3641 43.0634 43.0633C47.4989 38.6279 50.2652 32.9649 51.0508 26.8371L55.5128 30.5552C56.2731 31.1885 57.4031 31.0859 58.0369 30.3255C58.6707 29.5652 58.5681 28.4352 57.8073 27.8014Z" fill="#0A0A48"/>
<path d="M26.7887 69.4448C25.8006 69.4448 24.9964 68.6406 24.9964 67.6525C24.9964 66.6644 25.8006 65.8603 26.7887 65.8603H30.3733C31.3632 65.8603 32.1655 65.0579 32.1655 64.068C32.1655 63.078 31.3632 62.2757 30.3733 62.2757H28.581V61.6783C28.581 60.6883 27.7787 59.886 26.7887 59.886C25.7987 59.886 24.9964 60.6883 24.9964 61.6783V62.5837C22.9101 63.324 21.4119 65.316 21.4119 67.6525C21.4119 70.6173 23.824 73.0294 26.7887 73.0294C27.7768 73.0294 28.581 73.8336 28.581 74.8216C28.581 75.8097 27.7768 76.6139 26.7887 76.6139H23.2041C22.2142 76.6139 21.4119 77.4163 21.4119 78.4062C21.4119 79.3962 22.2142 80.1985 23.2041 80.1985H24.9964V80.7959C24.9964 81.7859 25.7987 82.5882 26.7887 82.5882C27.7787 82.5882 28.581 81.7859 28.581 80.7959V79.8904C30.6673 79.1502 32.1655 77.1581 32.1655 74.8216C32.1655 71.8569 29.7534 69.4448 26.7887 69.4448Z" fill="#FFD500"/>
<path d="M30.3731 65.8603C31.3631 65.8603 32.1654 65.0579 32.1654 64.068C32.1654 63.078 31.3631 62.2757 30.3731 62.2757H28.5809V61.6783C28.5809 60.6883 27.7785 59.886 26.7886 59.886V65.8603H30.3731Z" fill="#FFC300"/>
<path d="M26.7886 69.4448V73.0294C27.7767 73.0294 28.5809 73.8336 28.5809 74.8217C28.5809 75.8098 27.7767 76.6139 26.7886 76.6139V82.5882C27.7785 82.5882 28.5809 81.7859 28.5809 80.7959V79.8905C30.6672 79.1502 32.1654 77.1582 32.1654 74.8217C32.1654 71.8569 29.7533 69.4448 26.7886 69.4448Z" fill="#FFC300"/>
</g>
<defs>
<clipPath id="clip0">
<rect width="61.1765" height="61.1765" fill="white" transform="translate(21.4119 21.4117)"/>
</clipPath>
</defs>
</svg>
