<svg width="60" height="60" viewBox="0 0 60 60" fill="none" xmlns="http://www.w3.org/2000/svg">
<circle cx="30" cy="30" r="30" fill="#84CD8B"/>
<path d="M45 30.3625C45 39.2062 39.043 45.5 30.2459 45.5C21.8115 45.5 15 38.575 15 30C15 21.425 21.8115 14.5 30.2459 14.5C34.3525 14.5 37.8074 16.0312 40.4693 18.5563L36.3197 22.6125C30.8914 17.2875 20.7971 21.2875 20.7971 30C20.7971 35.4062 25.0451 39.7875 30.2459 39.7875C36.2828 39.7875 38.5451 35.3875 38.9016 33.1063H30.2459V27.775H44.7602C44.9016 28.5687 45 29.3312 45 30.3625Z" fill="white"/>
</svg>
