<svg width="76" height="12" viewBox="0 0 76 12" fill="none" xmlns="http://www.w3.org/2000/svg">
<path fill-rule="evenodd" clip-rule="evenodd" d="M5.99993 9.5649L2.39694 11.4591L3.08505 7.44712L0.170166 4.60581L4.19843 4.02047L5.99993 0.370239L7.80142 4.02047L11.8297 4.60581L8.91481 7.44712L9.60292 11.4591L5.99993 9.5649Z" fill="#FFC400"/>
<path fill-rule="evenodd" clip-rule="evenodd" d="M21.9999 9.5649L18.3969 11.4591L19.085 7.44712L16.1702 4.60581L20.1984 4.02047L21.9999 0.370239L23.8014 4.02047L27.8297 4.60581L24.9148 7.44712L25.6029 11.4591L21.9999 9.5649Z" fill="#FFC400"/>
<path fill-rule="evenodd" clip-rule="evenodd" d="M37.9999 9.5649L34.3969 11.4591L35.085 7.44712L32.1702 4.60581L36.1984 4.02047L37.9999 0.370239L39.8014 4.02047L43.8297 4.60581L40.9148 7.44712L41.6029 11.4591L37.9999 9.5649Z" fill="#FFC400"/>
<path fill-rule="evenodd" clip-rule="evenodd" d="M53.9999 9.5649L50.3969 11.4591L51.085 7.44712L48.1702 4.60581L52.1984 4.02047L53.9999 0.370239L55.8014 4.02047L59.8297 4.60581L56.9148 7.44712L57.6029 11.4591L53.9999 9.5649Z" fill="#FFC400"/>
<path fill-rule="evenodd" clip-rule="evenodd" d="M69.9999 9.5649L66.3969 11.4591L67.085 7.44712L64.1702 4.60581L68.1984 4.02047L69.9999 0.370239L71.8014 4.02047L75.8297 4.60581L72.9148 7.44712L73.6029 11.4591L69.9999 9.5649Z" fill="#FFC400"/>
</svg>
