<svg width="19" height="32" viewBox="0 0 19 32" fill="none" xmlns="http://www.w3.org/2000/svg">
<path d="M9.63748 0C4.96982 0 1.18604 3.71267 1.18604 8.29234C1.18604 12.8721 4.96982 16.585 9.63748 16.585C14.3051 16.585 18.0889 12.8721 18.0889 8.29234C18.0889 3.71267 14.3051 0 9.63748 0ZM9.63748 11.7204C7.70804 11.7204 6.14384 10.1856 6.14384 8.29246C6.14384 6.39934 7.70804 4.86459 9.63748 4.86459C11.5669 4.86459 13.1311 6.39934 13.1311 8.29246C13.1311 10.1856 11.5669 11.7204 9.63748 11.7204Z" fill="white"/>
<path d="M12.6213 23.1832C16.0048 22.5069 18.0323 20.9348 18.1396 20.8504C19.1296 20.0714 19.2887 18.6523 18.4947 17.6808C17.7008 16.7094 16.2546 16.5533 15.2643 17.3323C15.2434 17.3489 13.0809 18.9765 9.5228 18.9789C5.96482 18.9765 3.75659 17.3489 3.73566 17.3323C2.74536 16.5533 1.29921 16.7094 0.505323 17.6808C-0.288686 18.6523 -0.129641 20.0714 0.860421 20.8504C0.969151 20.936 3.08038 22.5491 6.55866 23.2095L1.71103 28.1803C0.830064 29.0767 0.856551 30.504 1.77017 31.3684C2.2161 31.7903 2.79084 32 3.36509 32C3.96715 32 4.56862 31.7692 5.0195 31.3103L9.52292 26.6033L14.4812 31.3408C15.3796 32.2208 16.8343 32.2194 17.731 31.3383C18.6277 30.457 18.6266 29.0294 17.7285 28.1496L12.6213 23.1832Z" fill="white"/>
<path d="M9.52262 18.9788C9.51704 18.9788 9.52808 18.9789 9.52262 18.979C9.51716 18.9789 9.5282 18.9788 9.52262 18.9788Z" fill="white"/>
</svg>
