<svg width="32" height="32" viewBox="0 0 32 32" fill="none" xmlns="http://www.w3.org/2000/svg">
<path d="M30.1206 10.0039L25.5418 4.79C23.9318 2.95662 21.8463 1.64619 19.5511 0.976937C18.4084 0.64375 17.2139 0.46875 15.9999 0.46875C12.3479 0.46875 8.87038 2.04362 6.45888 4.78944L1.87945 10.0037C0.297135 11.8055 0.29701 14.5226 1.87913 16.324L6.45663 21.5357C8.87057 24.2841 12.3487 25.8612 15.9991 25.8625H16.0038H16.0039C19.6543 25.8625 23.1351 24.2824 25.5534 21.5274L30.1213 16.3234C31.7027 14.5219 31.7024 11.8051 30.1206 10.0039Z" fill="#8288CB"/>
<path d="M8.96695 13.1641C8.96695 8.59987 11.8736 4.7145 15.9366 3.25781C17.2928 2.77156 18.5182 1.98025 19.5511 0.976937C18.4084 0.64375 17.2139 0.46875 15.9999 0.46875C12.3479 0.46875 8.87038 2.04362 6.45888 4.78944L1.87945 10.0037C0.297135 11.8055 0.29701 14.5226 1.87913 16.324L6.45663 21.5357C8.87057 24.2841 12.3487 25.8612 15.9991 25.8625H16.0038L15.9998 23.0923C11.9038 21.6534 8.96695 17.7518 8.96695 13.1641Z" fill="#676FB2"/>
<path d="M24.0492 28.0356C22.6773 24.8893 19.5543 22.7543 15.9999 22.7543C15.9998 22.7543 15.9998 22.7543 15.9998 22.7543C12.4257 22.7543 9.31389 24.909 7.95052 28.0358C7.48327 29.1074 7.22314 30.2893 7.22314 31.5311H15.9999H24.7766C24.7766 30.2893 24.5165 29.1073 24.0492 28.0356Z" fill="#8288CB"/>
<path d="M7.95052 28.0358C7.48327 29.1074 7.22314 30.2894 7.22314 31.5312H11.6115C11.8368 30.151 12.3343 28.86 13.0495 27.7169V23.2662C10.7742 24.0814 8.92002 25.8123 7.95052 28.0358Z" fill="#676FB2"/>
<path d="M22.0579 20.6782H9.94034C8.35322 22.2653 8.35322 24.8385 9.94034 26.4256L11.9182 28.5283C12.9772 29.6541 14.4542 30.2925 15.9998 30.2925C17.546 30.2925 19.0235 29.6536 20.0826 28.527L22.058 26.4255C23.645 24.8385 23.645 22.2653 22.0579 20.6782Z" fill="#676FB2"/>
<path d="M16.0001 21.678L13.0493 23.2649C13.5674 24.6238 14.6039 25.7001 16.0001 26.4467C17.3963 25.7001 18.4311 24.6237 18.9493 23.2649H18.9494L16.0001 21.678Z" fill="#FFCBBE"/>
<path d="M5.47958 15.7796C6.92411 15.7796 8.09514 14.6086 8.09514 13.164C8.09514 11.7195 6.92411 10.5485 5.47958 10.5485C4.03504 10.5485 2.86401 11.7195 2.86401 13.164C2.86401 14.6086 4.03504 15.7796 5.47958 15.7796Z" fill="#FFCBBE"/>
<path d="M26.5203 15.7796C27.9649 15.7796 29.1359 14.6086 29.1359 13.164C29.1359 11.7195 27.9649 10.5485 26.5203 10.5485C25.0758 10.5485 23.9048 11.7195 23.9048 13.164C23.9048 14.6086 25.0758 15.7796 26.5203 15.7796Z" fill="#FFCBBE"/>
<path d="M18.9506 23.2657C23.3253 21.9905 26.5219 17.9512 26.5219 13.165C26.5219 7.94866 22.7256 3.61903 17.7451 2.78822C17.1779 2.6936 16.5953 2.64441 16.0013 2.64441C10.1912 2.64441 5.48096 7.3546 5.48096 13.165C5.48096 17.9512 8.67758 21.9905 13.0521 23.2657C13.9879 23.5385 14.9774 23.6853 16.0013 23.6853C16.5955 23.6853 17.178 23.6359 17.7451 23.5411C18.1554 23.4725 18.5578 23.3802 18.9506 23.2657Z" fill="#FFDDCF"/>
<path d="M8.96742 13.164C8.96742 7.94774 12.7639 3.61812 17.7441 2.78725C17.1769 2.69262 16.5945 2.64343 16.0004 2.64343C10.1902 2.64343 5.47998 7.35362 5.47998 13.164C5.47998 18.9742 10.1902 23.6844 16.0004 23.6844C16.5945 23.6844 17.1769 23.6347 17.7441 23.5401C12.7639 22.7093 8.96742 18.3801 8.96742 13.164Z" fill="#FFCBBE"/>
<path d="M10.2646 18.4103C11.4209 18.4103 12.3583 17.6638 12.3583 16.743C12.3583 15.8222 11.4209 15.0757 10.2646 15.0757C9.10827 15.0757 8.1709 15.8222 8.1709 16.743C8.1709 17.6638 9.10827 18.4103 10.2646 18.4103Z" fill="#FFCBBE"/>
<path d="M21.727 18.4103C22.888 18.4103 23.8293 17.6638 23.8293 16.743C23.8293 15.8222 22.888 15.0757 21.727 15.0757C20.566 15.0757 19.6248 15.8222 19.6248 16.743C19.6248 17.6638 20.566 18.4103 21.727 18.4103Z" fill="#FFCBBE"/>
<path d="M24.8261 5.62453C23.1915 3.71265 20.9808 2.38415 18.5477 1.83778C18.3407 1.79134 18.1323 1.74984 17.9224 1.71484C17.2912 1.60953 16.6443 1.55615 15.9997 1.55615C10.8091 1.55615 6.40353 4.98097 4.92334 9.68953L5.80203 10.5682C6.71046 11.5389 7.7864 12.3347 8.96884 12.9573C14.382 15.8078 22.039 15.0122 26.1977 10.5683L27.0752 9.69078C26.6103 8.20784 25.8497 6.82171 24.8261 5.62453Z" fill="#8288CB"/>
<path d="M15.9365 3.25784C16.8765 2.92078 17.7536 2.43684 18.5476 1.83778C18.3407 1.79134 18.1323 1.74984 17.9224 1.71484C17.2912 1.60953 16.6443 1.55615 15.9997 1.55615C10.8091 1.55615 6.40353 4.98097 4.92334 9.68953L5.80203 10.5682C6.71046 11.5389 7.7864 12.3347 8.96884 12.9573C9.05509 8.48284 11.935 4.69246 15.9365 3.25784Z" fill="#676FB2"/>
<path d="M19.6023 9.30155L17.8835 6.32442C17.046 4.87367 14.9539 4.87424 14.1168 6.32442L12.3979 9.30155C11.5603 10.7523 12.6068 12.5637 14.2813 12.5637H17.719C19.3941 12.5637 20.4396 10.7517 19.6023 9.30155ZM15.9999 10.3888C15.2361 10.3887 14.7588 9.56187 15.1406 8.90043C15.5226 8.23886 16.4775 8.23893 16.8593 8.90049C17.2411 9.56187 16.764 10.3888 15.9999 10.3888Z" fill="#FFCE71"/>
<path d="M30.4731 9.69456C25.4591 3.985 25.6896 4.22937 25.2279 3.77581C25.0433 3.59444 24.7465 3.597 24.565 3.78169C24.3836 3.96637 24.3862 4.26319 24.5709 4.44456C24.9985 4.86462 24.7411 4.58819 29.7687 10.3131C31.1963 11.9387 31.1939 14.3912 29.7694 16.0142C28.8974 17.0076 28.1838 17.8258 27.5543 18.5477C25.2943 21.1391 24.5479 21.9949 23.6366 22.7178C23.5571 22.2853 23.4139 21.8615 23.206 21.4609C24.7452 20.1173 25.9467 18.3192 26.5554 16.2474C29.3842 16.2143 30.6622 12.7096 28.5637 10.8533C27.9122 10.277 27.0446 10.0041 26.1782 10.1001C26.0511 10.1055 25.9356 10.1628 25.8559 10.248C21.9637 14.4069 14.6422 15.4149 9.18768 12.5425C7.32918 11.5638 6.40105 10.4934 6.12643 10.2303C6.04362 10.1512 5.94068 10.1086 5.8348 10.1014C4.96412 10.0014 4.09149 10.2744 3.43662 10.8535C1.31899 12.7263 2.64493 16.2154 5.44574 16.2474C5.82949 17.5535 6.46074 18.7942 7.32649 19.907C7.77043 20.4776 8.26237 20.9962 8.79368 21.4602C8.58543 21.8611 8.44212 22.2854 8.36262 22.7183C7.49374 22.0331 6.79112 21.2287 4.39212 18.4826C3.77593 17.7772 3.07743 16.9778 2.23155 16.0146C0.803553 14.3888 0.80649 11.9361 2.23187 10.3131L6.8113 5.09875C9.13393 2.45425 12.4831 0.9375 16.0002 0.9375C18.5631 0.9375 21.1179 1.76888 23.194 3.27863C23.4034 3.43075 23.6964 3.38456 23.8488 3.17519C24.0011 2.96581 23.9547 2.67263 23.7454 2.52038C21.5103 0.895063 18.7597 0 16.0002 0C12.2134 0 8.60749 1.63294 6.10699 4.48012L1.52755 9.69444C-0.211447 11.6746 -0.20851 14.6569 1.52724 16.6333C2.3723 17.5955 3.0703 18.3945 3.68618 19.0994C6.50724 22.3288 7.0513 22.9514 8.29712 23.8382C8.3388 24.4865 8.51843 25.1249 8.8293 25.7049C8.62312 25.9582 8.42968 26.2226 8.2523 26.4943C8.1108 26.7111 8.1718 27.0016 8.38855 27.1431C8.60555 27.2847 8.89587 27.2234 9.0373 27.0068C9.14674 26.8392 9.26312 26.6747 9.38518 26.5142C9.45518 26.5954 9.52762 26.6751 9.60418 26.7519L11.5774 28.8496C12.6127 29.9503 14.0332 30.6257 15.5316 30.7431V31.0625H7.7053C7.7528 30.2121 7.92968 29.3804 8.23293 28.5846C8.32512 28.3427 8.20374 28.0719 7.9618 27.9797C7.71993 27.8875 7.44905 28.0089 7.35687 28.2508C6.9573 29.2993 6.75474 30.4031 6.75468 31.5312C6.75468 31.6556 6.80405 31.7747 6.89199 31.8627C6.97987 31.9506 7.09912 32 7.22343 32H24.7771C25.036 32 25.2458 31.7901 25.2458 31.5312C25.2458 29.4072 24.5109 27.3512 23.1706 25.7039C23.4808 25.1248 23.6602 24.4874 23.7021 23.8402C24.9711 22.9361 25.5588 22.2622 28.2608 19.1639C28.8899 18.4425 29.6029 17.6249 30.4739 16.6326C32.2118 14.6528 32.2086 11.6708 30.4731 9.69456ZM27.9426 11.5556C29.3301 12.7829 28.6033 15.0749 26.7889 15.2952C27.0637 13.9059 27.0668 12.4616 26.7833 11.0324C27.2104 11.0831 27.6102 11.2616 27.9426 11.5556ZM5.21218 15.2952C3.40868 15.0766 2.66224 12.79 4.05768 11.5557C4.39037 11.2616 4.79024 11.083 5.21755 11.0323C4.93412 12.4616 4.93724 13.9057 5.21218 15.2952ZM15.5315 29.801C14.2912 29.6861 13.1189 29.1202 12.2602 28.2072L10.2823 26.1044C10.2791 26.1009 10.2757 26.0976 10.2723 26.0941C9.20668 25.0285 8.93418 23.4021 9.5443 22.0601C10.5045 22.7604 11.5693 23.2966 12.7012 23.6509C13.2374 24.9014 14.2087 25.9553 15.5316 26.7214V29.801H15.5315ZM13.9164 23.9559C14.5954 24.0856 15.2922 24.1532 16.0002 24.1532C16.7077 24.1532 17.4041 24.0857 18.0827 23.9562C17.5992 24.7285 16.8939 25.3925 16.0002 25.9104C15.1057 25.3921 14.4001 24.728 13.9164 23.9559ZM19.2976 23.6514C20.4297 23.2972 21.4948 22.7612 22.4553 22.0607C23.065 23.4027 22.7924 25.0288 21.727 26.0942C21.7236 26.0976 21.7202 26.1011 21.7169 26.1046L19.7416 28.2061C18.8826 29.1198 17.7099 29.6861 16.4691 29.8011V26.7216C17.7904 25.9561 18.7612 24.9024 19.2976 23.6514ZM24.295 31.0625H16.469V30.743C17.968 30.6257 19.3891 29.9497 20.4246 28.8481L22.3952 26.7518C22.472 26.6748 22.5446 26.5949 22.6148 26.5134C23.6159 27.8307 24.2014 29.4141 24.295 31.0625ZM18.8479 22.8085L18.8477 22.8072C18.7501 22.8289 17.6076 23.2157 16.0002 23.2157C12.8787 23.2157 9.98705 21.7999 8.06655 19.3314C6.32093 17.0876 5.61799 14.2761 6.08437 11.5056C8.72387 13.9294 12.4 15.0989 15.9837 15.0989C19.5447 15.0989 23.2382 13.9636 25.9166 11.5056C26.7776 16.62 23.5959 21.4142 18.8479 22.8085Z" fill="black"/>
<path d="M13.7112 6.08995L11.9923 9.06708C10.9746 10.8298 12.2443 13.0323 14.2816 13.0323H17.7193C19.7547 13.0323 21.0274 10.8315 20.0086 9.06708L18.2898 6.09001C17.2722 4.32733 14.7297 4.32558 13.7112 6.08995ZM17.7193 12.0948H14.2816C12.9675 12.0948 12.1467 10.6746 12.8042 9.53583L14.5231 6.5587C15.1799 5.42095 16.8204 5.41976 17.4779 6.5587L19.1967 9.53583C19.8539 10.674 19.0342 12.0948 17.7193 12.0948Z" fill="black"/>
<path d="M14.7352 8.66597C14.1728 9.63972 14.8747 10.8574 16.0003 10.8575C17.1248 10.8575 17.8285 9.64097 17.2657 8.66603C16.7039 7.69271 15.298 7.69109 14.7352 8.66597ZM16.0003 9.92003C15.5977 9.91997 15.3452 9.48434 15.547 9.13478C15.7485 8.78565 16.2524 8.7859 16.4538 9.13478C16.6556 9.48428 16.4033 9.92003 16.0003 9.92003Z" fill="black"/>
<path d="M17.3373 16.4367C17.1422 16.2666 16.8461 16.2869 16.676 16.4821C16.5053 16.6778 16.2591 16.7901 16.0003 16.7901C15.7415 16.7901 15.4952 16.6778 15.3246 16.4821C15.1545 16.2869 14.8584 16.2666 14.6632 16.4367C14.468 16.6068 14.4477 16.9029 14.6179 17.0981C14.9665 17.4981 15.4704 17.7276 16.0002 17.7276C16.53 17.7276 17.0339 17.4982 17.3826 17.0981C17.5528 16.9029 17.5325 16.6068 17.3373 16.4367Z" fill="black"/>
</svg>
