<svg width="60" height="60" viewBox="0 0 60 60" fill="none" xmlns="http://www.w3.org/2000/svg">
<circle cx="30" cy="30" r="30" fill="#84CD8B"/>
<path d="M46.0626 23.3562C46.2938 22.575 46.0626 22 44.9501 22H41.2688C40.3313 22 39.9001 22.4937 39.6688 23.0437C39.6688 23.0437 37.7938 27.6125 35.1438 30.575C34.2876 31.4312 33.8938 31.7063 33.4251 31.7063C33.1938 31.7063 32.8376 31.4312 32.8376 30.65V23.3562C32.8376 22.4187 32.5751 22 31.8001 22H26.0126C25.4251 22 25.0751 22.4375 25.0751 22.8438C25.0751 23.7313 26.4001 23.9375 26.5376 26.4375V31.8625C26.5376 33.05 26.3251 33.2687 25.8563 33.2687C24.6063 33.2687 21.5688 28.6813 19.7688 23.4313C19.4063 22.4125 19.0501 22 18.1063 22H14.4251C13.3751 22 13.1626 22.4937 13.1626 23.0437C13.1626 24.0187 14.4126 28.8625 18.9813 35.2625C22.0251 39.6313 26.3126 42 30.2126 42C32.5563 42 32.8438 41.475 32.8438 40.5688C32.8438 36.3938 32.6313 36 33.8063 36C34.3501 36 35.2876 36.275 37.4751 38.3813C39.9751 40.8813 40.3876 42 41.7876 42H45.4688C46.5188 42 47.0501 41.475 46.7439 40.4375C46.0438 38.2563 41.3126 33.7688 41.1001 33.4688C40.5563 32.7688 40.7126 32.4563 41.1001 31.8313C41.1063 31.825 45.6001 25.5 46.0626 23.3562Z" fill="white"/>
</svg>
