<svg width="349" height="239" viewBox="0 0 349 239" fill="none" xmlns="http://www.w3.org/2000/svg">
<path d="M0.207031 90.2386L348.63 90.6088L286.504 45.5514L266.125 37.5274L243.399 35.0584L233.395 24.9359L224.008 23.3311L196.465 0.370336L183.126 0L168.058 10.8632L153.36 1.60479L140.392 0.370336L136.686 4.44403L144.344 12.468L132.363 22.9608L141.379 29.0096L103.338 40.737L132.734 8.88806L52.9459 55.9205L83.3297 49.8719L83.7002 53.9454L109.761 49.5016L116.06 55.18L68.2611 80.4862L80.242 65.1792L0.207031 90.2386ZM112.355 72.0918L147.679 65.6729L168.058 31.8489L187.449 50.7358L214.127 63.2038L193.377 41.4775L193.007 18.1464L227.096 59.9945L233.765 44.6871L273.536 50.7358L321.581 80.9799L96.0513 81.7208L112.355 72.0918Z" fill="#1B3259"/>
<path d="M18.5686 125.353V138.245C18.5686 138.874 18.5686 139.974 18.5686 141.704C18.5686 143.276 18.4113 145.005 18.2539 146.892C18.0966 148.779 17.7819 150.665 17.4672 152.552C17.1525 154.438 16.6804 156.01 16.0511 157.268C15.107 159.312 13.8482 161.041 12.2747 162.299C10.7012 163.557 8.81299 164.185 6.6101 164.185H6.29541V157.897C7.5542 157.74 8.49831 157.425 9.28505 156.796C9.91442 156.168 10.5438 155.224 11.0159 154.281C11.3306 153.338 11.6453 152.395 11.96 151.137C12.1173 149.879 12.432 148.621 12.432 147.206C12.5894 145.791 12.5894 144.376 12.7467 142.804C12.7467 141.232 12.7467 139.817 12.7467 138.56V119.851H31.1565V164.185H24.8626V125.353H18.5686Z" fill="#1B3259"/>
<path d="M31.7833 164.658H24.388V125.982H19.1955V138.403C19.1955 139.031 19.1955 140.132 19.1955 141.861C19.1955 143.433 19.0381 145.163 18.8807 147.206C18.7234 149.093 18.4087 150.98 18.094 152.866C17.7793 154.753 17.3073 156.325 16.6778 157.74C15.5764 159.941 14.3176 161.671 12.7441 162.928C11.1707 164.186 9.12512 164.815 6.76487 164.815H5.8208V157.426H6.29281C7.39428 157.426 8.33835 156.954 8.96776 156.482C9.59714 155.853 10.2266 155.067 10.5412 154.124C10.8559 153.338 11.1707 152.237 11.328 151.137C11.4853 149.879 11.8 148.622 11.8 147.206C11.9574 145.792 11.9574 144.377 12.1147 142.804C12.1147 141.39 12.1147 139.817 12.1147 138.56V119.222H31.626V164.658H31.7833ZM25.3321 163.557H30.6819V120.323H13.3735V138.403C13.3735 139.817 13.3735 141.233 13.3735 142.647C13.3735 144.219 13.2162 145.634 13.0588 147.049C12.9015 148.464 12.7441 149.879 12.5868 151.137C12.2721 152.395 11.9574 153.495 11.6427 154.439C11.1707 155.539 10.5412 156.325 9.7545 157.111C9.12513 157.74 8.18102 158.212 6.92223 158.369V163.714C8.96776 163.714 10.6986 163.085 12.1147 161.985C13.5309 160.884 14.7897 159.155 15.7338 157.111C16.3632 155.853 16.6778 154.439 16.9926 152.552C17.3073 150.665 17.6219 148.779 17.7793 146.892C17.9366 145.006 18.094 143.276 18.094 141.704C18.094 140.132 18.094 139.031 18.094 138.245V124.882H25.3321V163.557Z" fill="#1B3259"/>
<path d="M52.0817 164.185V135.415H51.9244L43.5849 164.185H37.291V119.851H43.5849V148.621H43.7421L52.0817 119.851H58.3758V164.185H52.0817Z" fill="#1B3259"/>
<path d="M59.0027 164.658H51.6071V138.717L44.0545 164.658H36.8164V119.222H44.2118V145.32L51.6071 119.222H58.8451V164.658H59.0027ZM52.5513 163.557H57.9012V120.323H52.5513L44.0545 149.093H42.953V120.323H37.6031V163.557H42.953L51.2926 134.787H52.3941V163.557H52.5513Z" fill="#1B3259"/>
<path d="M67.0311 164.185V171.103H61.5239V158.526H64.8281C65.1429 157.74 65.6147 156.796 65.9296 155.853C66.2441 154.91 66.5589 153.809 66.8734 152.709C67.1883 151.608 67.3456 150.508 67.5028 149.25C67.6604 147.992 67.8177 146.892 67.9749 145.791C68.1326 144.848 68.1326 143.905 68.1326 142.804C68.1326 141.704 68.2898 140.603 68.2898 139.503C68.2898 138.402 68.2898 137.144 68.4471 136.044C68.4471 134.944 68.4471 133.843 68.4471 132.742V119.851H86.6998V158.526H90.3188V170.946H84.8112V164.028H67.0311V164.185ZM74.4263 125.353V132.585C74.4263 133.214 74.4263 134 74.4263 135.101C74.4263 136.201 74.2691 137.459 74.2691 138.717C74.1118 139.974 74.1115 141.232 73.9542 142.647C73.797 143.905 73.797 145.163 73.6397 146.106C73.4821 146.892 73.4821 147.835 73.1676 148.936C73.0103 150.036 72.6955 151.137 72.5382 152.237C72.2233 153.338 72.0661 154.438 71.7516 155.539C71.4367 156.639 71.1222 157.582 70.8073 158.526H80.4056V125.353H74.4263Z" fill="#1B3259"/>
<path d="M90.7875 171.575H84.1789V164.658H67.4998V171.575H61.0488V158.055H64.5102C64.8251 157.426 65.1396 156.639 65.4545 155.696C65.769 154.753 66.0838 153.652 66.2411 152.552C66.556 151.452 66.7132 150.351 66.8705 149.093C67.0281 147.993 67.1853 146.735 67.3426 145.634C67.4998 144.848 67.4998 143.748 67.4998 142.804C67.4998 141.704 67.6575 140.603 67.6575 139.503C67.6575 138.403 67.6575 137.302 67.8147 136.044C67.8147 134.944 67.8147 133.843 67.8147 132.743V119.222H87.1685V157.897H90.7875V171.575ZM85.2804 170.474H89.686V159.155H86.067V120.323H68.9162V132.743C68.9162 133.843 68.9162 134.944 68.9162 136.044C68.9162 137.145 68.9162 138.403 68.7586 139.503C68.7586 140.603 68.6013 141.704 68.6013 142.804C68.6013 143.905 68.4441 144.848 68.4441 145.792C68.2868 146.892 68.1292 148.15 67.972 149.25C67.8147 150.508 67.4998 151.609 67.3426 152.709C67.0281 153.81 66.7132 154.91 66.3987 156.011C66.0838 157.111 65.769 158.055 65.2972 158.841L65.1396 159.155H62.1499V170.474H66.556V163.557H85.4377V170.474H85.2804ZM80.8748 158.998H69.8601L70.175 158.212C70.4895 157.426 70.8044 156.325 71.1188 155.382C71.4337 154.281 71.7482 153.181 71.9059 152.08C72.2203 150.98 72.3776 149.879 72.5352 148.779C72.6925 147.678 72.8497 146.735 73.0074 145.949C73.1646 145.006 73.1646 143.748 73.3219 142.49L73.6367 138.56C73.794 137.302 73.794 136.044 73.794 134.944C73.794 133.843 73.794 133.057 73.794 132.428V124.568H80.7171V158.998H80.8748ZM71.4337 158.055H79.7733V125.982H74.8955V132.743C74.8955 133.371 74.8955 134.158 74.8955 135.258C74.8955 136.358 74.7379 137.616 74.7379 138.874L74.4234 142.804C74.2661 144.062 74.2661 145.32 74.1085 146.263C73.9512 147.049 73.9512 147.993 73.6367 149.093C73.4791 150.193 73.1646 151.294 73.0074 152.395C72.6925 153.495 72.5352 154.596 72.2204 155.696C72.0631 156.482 71.7482 157.268 71.4337 158.055Z" fill="#1B3259"/>
<path d="M93.4688 164.185V119.851H112.351V125.825H99.7629V138.874H110.777V144.848H99.7629V157.897H112.351V164.185H93.4688Z" fill="#1B3259"/>
<path d="M112.978 164.658H92.9941V119.222H112.978V126.297H100.39V138.245H111.404V145.32H100.39V157.268H112.978V164.658ZM94.0957 163.557H112.033V158.212H99.4455V144.062H110.46V139.188H99.4455V125.039H112.033V120.165H94.0957V163.557Z" fill="#1B3259"/>
<path d="M116.599 164.185V119.851H126.197C127.928 119.851 129.501 120.008 130.76 120.479C132.019 120.951 133.278 121.738 134.379 122.838C135.48 123.938 136.267 125.353 136.582 126.925C137.054 128.498 137.211 130.541 137.211 133.214C137.211 135.258 137.054 136.83 136.897 138.245C136.739 139.66 136.11 140.918 135.48 142.176C134.536 143.59 133.435 144.691 132.019 145.634C130.603 146.42 128.714 146.892 126.354 146.892H123.05V164.185H116.599ZM122.892 125.825V140.918H125.882C127.141 140.918 128.242 140.76 128.872 140.289C129.501 139.974 130.13 139.346 130.445 138.717C130.76 138.088 130.917 137.302 131.075 136.358C131.075 135.415 131.232 134.472 131.232 133.371C131.232 132.271 131.232 131.328 131.232 130.384C131.232 129.441 131.075 128.655 130.603 127.869C130.288 127.24 129.816 126.611 129.029 126.297C128.4 125.982 127.456 125.668 126.197 125.668H122.892V125.825Z" fill="#1B3259"/>
<path d="M123.519 164.658H116.124V119.222H126.194C127.925 119.222 129.656 119.536 130.915 120.008C132.331 120.48 133.59 121.423 134.691 122.524C135.793 123.781 136.579 125.196 137.051 126.768C137.524 128.341 137.681 130.542 137.681 133.214C137.681 135.258 137.523 136.987 137.366 138.403C137.051 139.817 136.579 141.233 135.793 142.49C134.848 144.062 133.59 145.163 132.174 146.106C130.6 146.892 128.555 147.364 126.194 147.364H123.519V164.658ZM117.068 163.557H122.418V146.263H126.194C128.397 146.263 130.285 145.949 131.702 145.163C133.118 144.377 134.219 143.276 135.006 142.018C135.793 140.918 136.264 139.66 136.422 138.403C136.579 136.987 136.737 135.415 136.737 133.371C136.737 130.699 136.579 128.655 136.107 127.24C135.793 125.825 135.006 124.41 134.062 123.31C133.118 122.209 131.859 121.423 130.6 120.952C129.341 120.48 127.768 120.323 126.194 120.323H117.226V163.557H117.068ZM126.037 141.39H122.418V125.196H126.194C127.61 125.196 128.555 125.353 129.341 125.825C130.128 126.297 130.757 126.926 131.072 127.712C131.387 128.498 131.702 129.441 131.702 130.384C131.702 131.328 131.702 132.271 131.702 133.371C131.702 134.472 131.702 135.573 131.544 136.516C131.544 137.459 131.229 138.403 130.915 139.031C130.6 139.817 129.971 140.446 129.184 140.761C128.397 141.232 127.453 141.39 126.037 141.39ZM123.519 140.289H126.037C127.296 140.289 128.083 140.132 128.712 139.817C129.341 139.503 129.813 139.031 129.971 138.56C130.285 137.931 130.443 137.302 130.443 136.516C130.443 135.573 130.6 134.629 130.6 133.529C130.6 132.428 130.6 131.485 130.6 130.542C130.6 129.755 130.443 128.969 130.128 128.341C129.813 127.712 129.499 127.24 128.869 126.926C128.24 126.611 127.453 126.454 126.194 126.454H123.362V140.289H123.519Z" fill="#1B3259"/>
<path d="M141.931 119.851H148.225V138.088H150.585C152.788 138.088 154.676 138.402 156.092 139.031C157.508 139.66 158.767 140.446 159.711 141.547C160.655 142.647 161.285 143.905 161.442 145.32C161.757 146.577 161.914 148.15 161.914 149.722V152.237C161.914 156.168 160.97 159.155 159.082 161.198C157.194 163.242 154.204 164.343 149.956 164.343H141.773V119.851H141.931ZM148.382 143.59V157.74H150.585C151.844 157.74 152.945 157.582 153.575 157.111C154.361 156.796 154.833 156.168 155.305 155.539C155.62 154.91 155.935 154.124 155.935 153.18C156.092 152.237 156.092 151.294 156.092 150.193C156.092 149.093 156.092 148.15 155.935 147.363C155.777 146.577 155.62 145.949 155.148 145.32C154.676 144.691 154.204 144.219 153.417 143.905C152.788 143.59 151.844 143.433 150.585 143.433H148.382V143.59ZM165.218 164.185V119.851H171.513V164.185H165.218Z" fill="#1B3259"/>
<path d="M172.142 164.658H164.747V119.222H172.142V164.658ZM165.849 163.557H171.199V120.323H165.849V163.557ZM150.114 164.658H141.459V119.222H148.855V137.459H150.743C152.946 137.459 154.992 137.774 156.408 138.403C157.981 139.031 159.24 139.974 160.184 141.075C161.128 142.333 161.915 143.59 162.072 145.006C162.387 146.42 162.544 147.836 162.544 149.565V152.08C162.544 156.168 161.6 159.312 159.555 161.356C157.666 163.557 154.362 164.658 150.114 164.658ZM142.561 163.557H150.271C154.205 163.557 157.194 162.614 158.925 160.57C160.656 158.683 161.6 155.696 161.6 151.923V149.407C161.6 147.836 161.443 146.42 161.128 145.006C160.971 143.748 160.342 142.647 159.397 141.547C158.611 140.603 157.352 139.817 156.093 139.188C154.677 138.56 152.946 138.403 150.743 138.403H147.911V120.323H142.561V163.557ZM150.586 158.369H147.754V143.119H150.586C151.845 143.119 152.789 143.276 153.575 143.59C154.362 143.905 154.992 144.377 155.464 145.163C155.936 145.792 156.093 146.577 156.25 147.521C156.408 148.307 156.408 149.25 156.408 150.508C156.408 151.609 156.408 152.552 156.25 153.495C156.093 154.439 155.936 155.382 155.464 156.011C154.992 156.797 154.362 157.426 153.575 157.74C153.104 158.055 152.002 158.369 150.586 158.369ZM148.855 157.268H150.586C151.845 157.268 152.789 157.111 153.418 156.797C154.047 156.482 154.52 156.011 154.834 155.382C155.149 154.753 155.306 154.124 155.464 153.181C155.621 152.237 155.621 151.294 155.621 150.193C155.621 149.093 155.621 148.15 155.464 147.364C155.306 146.577 155.149 146.106 154.834 145.477C154.52 145.006 154.047 144.534 153.418 144.377C152.789 144.062 151.845 143.905 150.901 143.905H149.17V157.268H148.855Z" fill="#1B3259"/>
<path d="M189.29 164.185V119.851H198.888C200.619 119.851 202.192 120.008 203.451 120.479C204.71 120.951 205.969 121.738 207.07 122.838C208.171 123.938 208.958 125.353 209.273 126.925C209.745 128.498 209.902 130.541 209.902 133.214C209.902 135.258 209.745 136.83 209.588 138.245C209.43 139.66 208.801 140.918 208.171 142.176C207.227 143.59 206.126 144.691 204.71 145.634C203.293 146.42 201.405 146.892 199.045 146.892H195.741V164.185H189.29ZM195.583 125.825V140.918H198.573C199.832 140.918 200.933 140.76 201.563 140.289C202.192 139.974 202.821 139.346 203.136 138.717C203.451 138.088 203.608 137.302 203.766 136.358C203.766 135.415 203.923 134.472 203.923 133.371C203.923 132.271 203.923 131.328 203.923 130.384C203.923 129.441 203.766 128.655 203.293 127.869C202.979 127.24 202.507 126.611 201.72 126.297C201.09 125.982 200.147 125.668 198.888 125.668H195.583V125.825Z" fill="#1B3259"/>
<path d="M196.057 164.658H188.661V119.222H198.732C200.462 119.222 202.193 119.536 203.452 120.008C204.868 120.48 206.127 121.423 207.228 122.524C208.33 123.781 209.116 125.196 209.589 126.768C210.061 128.341 210.218 130.542 210.218 133.214C210.218 135.258 210.061 136.987 209.903 138.403C209.589 139.817 209.116 141.233 208.33 142.49C207.386 144.062 206.127 145.163 204.711 146.106C203.137 146.892 201.092 147.364 198.732 147.364H196.057V164.658ZM189.763 163.557H195.113V146.263H198.889C201.092 146.263 202.98 145.949 204.396 145.163C205.812 144.377 206.914 143.276 207.7 142.018C208.487 140.918 208.959 139.66 209.116 138.403C209.274 136.987 209.431 135.415 209.431 133.371C209.431 130.699 209.274 128.655 208.802 127.24C208.487 125.825 207.7 124.41 206.756 123.31C205.812 122.209 204.554 121.423 203.295 120.952C202.036 120.48 200.462 120.323 198.889 120.323H189.92V163.557H189.763ZM198.574 141.39H194.955V125.196H198.732C200.148 125.196 201.092 125.353 201.878 125.825C202.665 126.297 203.295 126.926 203.609 127.712C203.924 128.498 204.239 129.441 204.239 130.384C204.239 131.328 204.239 132.271 204.239 133.371C204.239 134.472 204.239 135.573 204.081 136.516C204.081 137.459 203.767 138.403 203.452 139.031C203.137 139.817 202.508 140.446 201.721 140.761C201.092 141.232 199.99 141.39 198.574 141.39ZM196.057 140.289H198.574C199.833 140.289 200.62 140.132 201.249 139.817C201.878 139.503 202.351 139.031 202.508 138.56C202.823 137.931 202.98 137.302 202.98 136.516C202.98 135.573 203.137 134.629 203.137 133.529C203.137 132.428 203.137 131.485 203.137 130.542C203.137 129.755 202.98 128.969 202.665 128.341C202.351 127.712 202.036 127.24 201.406 126.926C200.777 126.611 199.99 126.454 198.732 126.454H195.899V140.289H196.057Z" fill="#1B3259"/>
<path d="M214.15 130.228C214.15 128.499 214.465 126.927 215.094 125.512C215.724 124.097 216.51 122.996 217.612 122.053C218.556 121.11 219.815 120.481 221.073 120.009C222.332 119.538 223.591 119.38 224.85 119.38C226.108 119.38 227.367 119.538 228.626 120.009C229.885 120.481 230.986 121.11 232.088 122.053C233.032 122.996 233.819 124.097 234.448 125.512C235.077 126.927 235.392 128.499 235.392 130.228V153.653C235.392 155.54 235.077 157.112 234.448 158.527C233.819 159.785 233.032 160.885 232.088 161.829C230.986 162.772 229.885 163.401 228.626 163.873C227.367 164.344 226.108 164.501 224.85 164.501C223.591 164.501 222.332 164.344 221.073 163.873C219.815 163.401 218.713 162.772 217.612 161.829C216.51 160.885 215.724 159.785 215.094 158.527C214.465 157.269 214.15 155.54 214.15 153.653V130.228ZM220.601 153.653C220.601 155.226 221.073 156.326 221.86 157.112C222.647 157.898 223.748 158.213 224.85 158.213C225.951 158.213 227.053 157.898 227.839 157.112C228.626 156.326 229.098 155.226 229.098 153.653V130.228C229.098 128.656 228.626 127.555 227.839 126.77C227.053 125.984 225.951 125.669 224.85 125.669C223.748 125.669 222.647 125.984 221.86 126.77C221.073 127.555 220.601 128.656 220.601 130.228V153.653Z" fill="#1B3259"/>
<path d="M224.851 164.972C223.435 164.972 222.176 164.657 220.76 164.185C219.501 163.714 218.242 162.928 217.141 161.984C216.039 161.041 215.253 159.94 214.466 158.526C213.836 157.111 213.522 155.381 213.522 153.495V130.227C213.522 128.34 213.836 126.768 214.466 125.196C215.095 123.781 216.039 122.523 217.141 121.58C218.242 120.637 219.344 120.008 220.76 119.536C223.435 118.593 226.11 118.593 228.785 119.536C230.043 120.008 231.302 120.794 232.404 121.58C233.505 122.523 234.292 123.781 234.921 125.196C235.551 126.611 235.865 128.34 235.865 130.227V153.652C235.865 155.538 235.551 157.268 234.921 158.683C234.292 160.098 233.348 161.198 232.404 162.142C231.302 163.085 230.043 163.871 228.785 164.343C227.526 164.814 226.267 164.972 224.851 164.972ZM224.851 120.008C223.592 120.008 222.333 120.165 221.232 120.637C219.973 121.108 218.872 121.737 217.928 122.523C216.984 123.309 216.197 124.41 215.567 125.825C214.938 127.082 214.623 128.655 214.623 130.384V153.809C214.623 155.538 214.938 157.111 215.567 158.368C216.197 159.626 216.984 160.727 217.928 161.513C218.872 162.456 219.973 163.085 221.232 163.399C223.592 164.343 226.11 164.343 228.47 163.399C229.729 162.928 230.83 162.299 231.774 161.513C232.719 160.727 233.505 159.626 234.135 158.368C234.764 157.111 235.079 155.538 235.079 153.809V130.227C235.079 128.497 234.764 127.082 234.135 125.667C233.505 124.41 232.719 123.309 231.774 122.366C230.83 121.58 229.729 120.951 228.47 120.479C227.369 120.165 226.11 120.008 224.851 120.008ZM224.851 158.683C223.592 158.683 222.491 158.211 221.547 157.425C220.603 156.639 220.131 155.381 220.131 153.652V130.227C220.131 128.497 220.603 127.24 221.547 126.453C222.491 125.667 223.592 125.196 224.851 125.196C226.11 125.196 227.211 125.667 228.155 126.453C229.1 127.24 229.572 128.497 229.572 130.227V153.652C229.572 155.381 229.1 156.639 228.155 157.425C227.369 158.211 226.11 158.683 224.851 158.683ZM224.851 126.296C223.75 126.296 222.963 126.611 222.176 127.24C221.389 127.869 221.074 128.812 221.074 130.227V153.652C221.074 155.067 221.389 156.01 222.176 156.639C222.963 157.268 223.75 157.582 224.851 157.582C225.952 157.582 226.739 157.268 227.526 156.639C228.313 156.01 228.627 155.067 228.627 153.652V130.227C228.627 128.812 228.313 127.869 227.526 127.24C226.739 126.611 225.952 126.296 224.851 126.296Z" fill="#1B3259"/>
<path d="M261.358 151.452V154.124C261.358 155.539 261.043 156.796 260.571 158.055C260.099 159.312 259.312 160.413 258.368 161.356C257.424 162.299 256.323 163.085 255.221 163.557C253.962 164.186 252.704 164.343 251.287 164.343C250.028 164.343 248.927 164.186 247.668 163.871C246.409 163.557 245.308 162.928 244.364 162.142C243.42 161.356 242.476 160.255 241.846 158.998C241.217 157.74 240.902 156.011 240.902 153.967V129.598C240.902 128.183 241.217 126.768 241.689 125.511C242.161 124.253 242.948 123.152 243.735 122.209C244.679 121.266 245.78 120.637 247.039 120.008C248.298 119.536 249.714 119.222 251.287 119.222C254.277 119.222 256.637 120.165 258.525 122.209C259.469 123.152 260.099 124.253 260.728 125.668C261.2 126.926 261.515 128.341 261.515 129.913V132.428H255.221V130.384C255.221 129.127 254.906 128.026 254.12 127.083C253.49 126.139 252.389 125.668 251.287 125.668C249.714 125.668 248.612 126.139 248.14 127.083C247.668 128.026 247.354 129.284 247.354 130.856V153.495C247.354 154.753 247.668 155.853 248.14 156.796C248.77 157.74 249.714 158.055 251.13 158.055C251.602 158.055 251.917 158.055 252.546 157.897C253.018 157.74 253.49 157.583 253.962 157.111C254.277 156.796 254.592 156.325 254.906 155.696C255.221 155.067 255.221 154.439 255.221 153.495V151.294H261.358V151.452Z" fill="#1B3259"/>
<path d="M251.289 164.972C250.03 164.972 248.772 164.815 247.512 164.5C246.254 164.186 244.995 163.557 243.893 162.614C242.792 161.67 242.005 160.57 241.219 159.155C240.589 157.74 240.274 156.01 240.274 153.967V129.598C240.274 128.026 240.589 126.611 241.061 125.353C241.533 124.096 242.32 122.838 243.264 121.895C244.208 120.952 245.31 120.165 246.726 119.693C247.985 119.222 249.558 118.907 251.132 118.907C254.279 118.907 256.796 120.008 258.842 122.052C259.786 122.995 260.573 124.253 261.045 125.668C261.517 127.083 261.831 128.498 261.831 130.07V133.057H254.436V130.384C254.436 129.284 254.121 128.341 253.492 127.397C252.862 126.611 252.076 126.296 250.974 126.296C249.558 126.296 248.772 126.611 248.299 127.555C247.827 128.498 247.512 129.598 247.512 131.013V153.652C247.512 154.753 247.827 155.853 248.299 156.639C248.772 157.425 249.558 157.74 250.817 157.74C251.132 157.74 251.604 157.74 252.076 157.583C252.548 157.425 252.862 157.268 253.177 156.954C253.492 156.639 253.807 156.325 253.964 155.853C254.121 155.382 254.279 154.753 254.279 153.809V151.137H261.674V154.438C261.674 155.853 261.36 157.268 260.887 158.526C260.415 159.784 259.629 160.884 258.684 161.985C257.741 162.928 256.639 163.714 255.38 164.343C254.121 164.815 252.705 164.972 251.289 164.972ZM251.132 120.008C249.715 120.008 248.299 120.323 247.198 120.794C245.939 121.266 244.995 121.895 244.051 122.838C243.264 123.624 242.477 124.725 242.005 125.825C241.533 126.926 241.219 128.341 241.219 129.598V153.967C241.219 155.853 241.534 157.583 242.163 158.683C242.792 159.941 243.579 160.884 244.523 161.67C245.467 162.456 246.569 162.928 247.67 163.242C250.188 163.871 252.862 163.871 254.908 162.928C256.01 162.456 257.111 161.67 257.898 160.727C258.684 159.784 259.471 158.84 259.943 157.583C260.415 156.482 260.73 155.224 260.73 153.967V151.766H255.38V153.338C255.38 154.281 255.223 155.067 254.908 155.696C254.593 156.325 254.279 156.796 253.807 157.268C253.334 157.583 252.862 157.897 252.233 158.054C251.761 158.212 251.132 158.369 250.66 158.369C249.086 158.369 247.827 157.897 247.198 156.796C246.569 155.853 246.254 154.596 246.254 153.338V130.856C246.254 129.284 246.569 127.869 247.041 126.926C247.67 125.825 248.929 125.196 250.66 125.196C252.076 125.196 253.177 125.668 253.964 126.768C254.751 127.712 255.065 128.969 255.065 130.384V131.956H260.415V130.07C260.415 128.655 260.1 127.24 259.629 125.982C259.157 124.725 258.527 123.624 257.583 122.681C256.324 120.794 253.964 120.008 251.132 120.008Z" fill="#1B3259"/>
<path d="M286.058 151.452V154.124C286.058 155.539 285.743 156.796 285.271 158.055C284.799 159.312 284.013 160.413 283.068 161.356C282.124 162.299 281.023 163.085 279.921 163.557C278.663 164.186 277.404 164.343 275.988 164.343C274.729 164.343 273.628 164.186 272.369 163.871C271.11 163.557 270.009 162.928 269.064 162.142C268.12 161.356 267.176 160.255 266.547 158.998C265.917 157.74 265.603 156.011 265.603 153.967V129.598C265.603 128.183 265.917 126.768 266.39 125.511C266.861 124.253 267.648 123.152 268.435 122.209C269.379 121.266 270.48 120.637 271.739 120.008C272.998 119.536 274.414 119.222 275.988 119.222C278.977 119.222 281.337 120.165 283.226 122.209C284.17 123.152 284.799 124.253 285.429 125.668C285.901 126.926 286.216 128.341 286.216 129.913V132.428H279.921V130.384C279.921 129.127 279.607 128.026 278.82 127.083C278.19 126.139 277.089 125.668 275.988 125.668C274.414 125.668 273.313 126.139 272.841 127.083C272.369 128.026 272.054 129.284 272.054 130.856V153.495C272.054 154.753 272.369 155.853 272.841 156.796C273.47 157.74 274.414 158.055 275.83 158.055C276.302 158.055 276.617 158.055 277.247 157.897C277.718 157.74 278.19 157.583 278.663 157.111C278.977 156.796 279.292 156.325 279.607 155.696C279.921 155.067 279.921 154.439 279.921 153.495V151.294H286.058V151.452Z" fill="#1B3259"/>
<path d="M275.989 164.972C274.73 164.972 273.471 164.815 272.213 164.5C270.954 164.186 269.695 163.557 268.594 162.614C267.492 161.67 266.705 160.57 265.918 159.155C265.289 157.74 264.975 156.01 264.975 153.967V129.598C264.975 128.026 265.289 126.611 265.761 125.353C266.233 124.096 267.02 122.838 267.964 121.895C268.908 120.952 270.01 120.165 271.426 119.693C272.684 119.222 274.258 118.907 275.832 118.907C278.979 118.907 281.496 120.008 283.542 122.052C284.486 122.995 285.272 124.253 285.744 125.668C286.217 127.083 286.531 128.498 286.531 130.07V133.057H279.136V130.384C279.136 129.284 278.821 128.341 278.192 127.397C277.563 126.611 276.775 126.296 275.674 126.296C274.258 126.296 273.471 126.611 272.999 127.555C272.527 128.498 272.213 129.598 272.213 131.013V153.652C272.213 154.753 272.527 155.853 272.999 156.639C273.471 157.425 274.258 157.74 275.517 157.74C275.832 157.74 276.304 157.74 276.776 157.583C277.248 157.425 277.563 157.268 277.877 156.954C278.192 156.639 278.506 156.325 278.664 155.853C278.821 155.382 278.979 154.753 278.979 153.809V151.137H286.374V154.438C286.374 155.853 286.059 157.268 285.587 158.526C285.115 159.784 284.328 160.884 283.384 161.985C282.44 162.928 281.339 163.714 280.08 164.343C278.979 164.815 277.563 164.972 275.989 164.972ZM275.832 120.008C274.415 120.008 272.999 120.323 271.898 120.794C270.639 121.266 269.695 121.895 268.751 122.838C267.964 123.624 267.177 124.725 266.705 125.825C266.233 126.926 265.918 128.341 265.918 129.598V153.967C265.918 155.853 266.233 157.583 266.863 158.683C267.492 159.941 268.279 160.884 269.223 161.67C270.167 162.456 271.268 162.928 272.37 163.242C274.887 163.871 277.563 163.871 279.608 162.928C280.709 162.456 281.811 161.67 282.598 160.727C283.384 159.784 284.171 158.84 284.643 157.583C285.115 156.482 285.43 155.224 285.43 153.967V151.766H280.08V153.338C280.08 154.281 279.923 155.067 279.608 155.696C279.293 156.325 278.979 156.796 278.506 157.268C278.034 157.583 277.563 157.897 276.933 158.054C276.461 158.212 275.832 158.369 275.359 158.369C273.786 158.369 272.527 157.897 271.898 156.796C271.268 155.853 270.954 154.596 270.954 153.338V130.856C270.954 129.284 271.268 127.869 271.74 126.926C272.37 125.825 273.629 125.196 275.359 125.196C276.775 125.196 277.877 125.668 278.664 126.768C279.451 127.712 279.765 128.969 279.765 130.384V131.956H285.115V130.07C285.115 128.655 284.801 127.24 284.328 125.982C283.856 124.725 283.227 123.624 282.283 122.681C281.024 120.794 278.664 120.008 275.832 120.008Z" fill="#1B3259"/>
<path d="M306.204 164.185V135.415H306.046L297.707 164.185H291.413V119.851H297.707V148.621H297.864L306.204 119.851H312.498V164.185H306.204Z" fill="#1B3259"/>
<path d="M312.964 164.658H305.568V138.717L298.016 164.658H290.777V119.222H298.173V145.32L305.726 119.222H312.964V164.658ZM306.67 163.557H312.02V120.323H306.513L298.173 149.093H297.072V120.323H291.722V163.557H297.072L305.411 134.787H306.513V163.557H306.67Z" fill="#1B3259"/>
<path d="M333.266 164.185V135.415L324.927 164.185H318.633V119.851H324.927V148.621H325.084L333.423 119.851H339.717V164.185H333.266Z" fill="#1B3259"/>
<path d="M340.191 164.658H332.795V138.717L325.242 164.658H318.004V119.222H325.4V145.32L332.953 119.222H340.191V164.658ZM333.896 163.557H339.246V120.323H333.896L325.4 149.093H324.299V120.323H318.949V163.557H324.299L332.638 134.787H333.739V163.557H333.896Z" fill="#1B3259"/>
<path d="M26.1227 199.713C25.4933 199.713 25.0213 199.713 24.7066 199.871C24.3919 200.028 23.9198 200.342 23.6051 200.657C23.2904 200.971 22.9757 201.443 22.9757 202.072C22.8184 202.543 22.8184 203.172 22.661 203.801L22.0316 208.989C22.0316 209.461 21.8743 210.09 21.8743 210.562C21.7169 211.033 21.7169 211.348 21.5596 211.819C21.4022 212.291 21.4022 212.605 21.2449 212.919C20.9302 213.549 20.6155 214.02 20.3008 214.492C19.9861 214.964 19.6714 215.278 19.1994 215.592L25.808 238.074H19.3567L13.8495 218.265H10.2305V238.074H3.93652V193.739H10.2305V212.762H12.276C13.0628 212.762 13.6921 212.605 14.0068 212.448C14.4789 212.291 14.7936 211.976 15.1083 211.505C15.423 211.19 15.5803 210.719 15.7377 210.247C15.895 209.775 15.895 209.304 16.0524 208.675L16.6818 203.329C16.6818 203.172 16.8391 202.858 16.8391 202.229C16.8391 201.757 16.9965 201.129 17.1538 200.5C17.3112 199.871 17.6259 199.085 17.7832 198.456C18.0979 197.827 18.4126 197.041 18.8847 196.412C19.6714 195.469 20.6155 194.683 21.7169 194.211C22.8184 193.739 24.2345 193.582 25.808 193.582V199.713H26.1227Z" fill="#1B3259"/>
<path d="M39.179 199.244V212.136C39.179 212.765 39.179 213.865 39.179 215.595C39.179 217.167 39.0216 218.896 38.8643 220.783C38.7069 222.669 38.3922 224.556 38.0775 226.443C37.7628 228.329 37.2908 229.901 36.6614 231.159C35.7173 233.203 34.4585 234.932 32.885 236.19C31.3115 237.448 29.4233 238.076 27.2204 238.076H26.9058V231.788C28.1646 231.631 29.1087 231.316 29.8954 230.687C30.5248 230.059 31.1542 229.115 31.6262 228.172C31.9409 227.229 32.2556 226.285 32.5703 225.027C32.7277 223.77 33.0424 222.512 33.0424 221.097C33.1997 219.682 33.1997 218.267 33.357 216.695C33.357 215.123 33.357 213.708 33.357 212.45V193.899H51.767V238.234H45.4728V199.559H39.179V199.244Z" fill="#1B3259"/>
<path d="M58.5321 232.101C59.1615 232.101 59.7909 232.101 60.5775 231.944C61.3641 231.787 61.8362 231.472 62.3084 231.158C62.6229 230.843 62.9378 230.372 63.4099 229.586C63.882 228.8 64.1965 227.856 64.5114 226.441L65.1408 224.083L55.5425 193.74H62.3084L68.2876 214.65H68.4449L73.1654 193.74H79.9313L70.6479 227.384C70.0185 229.429 69.3892 231.158 68.7598 232.73C68.1304 234.302 67.1861 235.56 65.9274 236.503C64.9831 237.289 63.882 237.918 62.7805 238.075C61.679 238.233 60.4202 238.39 59.1615 238.39H58.2172V232.101H58.5321Z" fill="#1B3259"/>
<path d="M82.9229 193.74H101.175V199.715H89.3743V211.978H91.8918C94.0944 211.978 95.9829 212.292 97.3989 212.921C98.8149 213.55 100.074 214.336 101.018 215.436C101.962 216.537 102.592 217.794 102.749 219.21C103.063 220.624 103.221 222.039 103.221 223.611V226.127C103.221 230.057 102.277 233.044 100.389 235.088C98.5004 237.132 95.5108 238.233 91.2624 238.233H82.9229V193.74ZM89.3743 217.48V231.63H91.7345C92.9933 231.63 94.0944 231.472 94.7241 231C95.5108 230.686 95.9829 230.057 96.4546 229.429C96.7695 228.8 97.084 228.013 97.084 227.07C97.2417 226.127 97.2417 225.184 97.2417 224.083C97.2417 222.983 97.2417 222.04 97.084 221.096C96.9268 220.31 96.6123 219.524 96.2974 219.052C95.8253 218.581 95.3535 218.109 94.7241 217.794C94.0944 217.48 93.1505 217.323 92.049 217.323H89.3743V217.48Z" fill="#1B3259"/>
<path d="M130.129 208.208V214.497L123.835 220.785L130.129 227.074V233.362L117.541 220.785L130.129 208.208ZM141.615 208.208V214.497L135.322 220.785L141.615 227.074V233.362L129.027 220.785L141.615 208.208Z" fill="#1B3259"/>
<path d="M151.84 212.765H159.707V204.904C159.707 203.332 159.392 202.232 158.92 201.131C158.291 200.188 157.347 199.716 155.773 199.716C154.514 199.716 153.57 200.188 152.941 201.131C152.312 202.074 151.997 203.175 151.997 204.432V206.476H145.703V204.59C145.703 203.018 146.018 201.603 146.49 200.03C147.119 198.458 147.748 197.358 148.692 196.257C149.637 195.314 150.738 194.528 151.997 194.056C153.256 193.584 154.514 193.27 155.931 193.27C157.347 193.27 158.763 193.584 160.021 194.056C161.28 194.528 162.382 195.314 163.326 196.257C164.27 197.2 164.9 198.301 165.371 199.559C165.843 200.816 166.158 202.232 166.158 203.646V227.386C166.158 229.43 165.843 231.159 165.214 232.732C164.585 234.303 163.64 235.404 162.697 236.19C161.752 236.976 160.651 237.605 159.392 237.919C158.133 238.234 156.875 238.391 155.773 238.391C154.357 238.391 153.098 238.076 151.84 237.605C150.581 237.133 149.479 236.347 148.535 235.404C147.591 234.461 146.962 233.36 146.49 232.102C146.018 230.845 145.703 229.587 145.703 228.172V225.499H151.997V227.7C151.997 228.644 152.154 229.273 152.312 229.902C152.469 230.53 152.783 231.002 153.256 231.316C153.728 231.631 154.042 231.945 154.672 232.102C155.144 232.26 155.616 232.26 156.088 232.26C157.504 232.26 158.605 231.788 159.078 230.845C159.707 229.902 160.021 228.801 160.021 227.543V218.267H152.154V212.765H151.84Z" fill="#1B3259"/>
<path d="M180.478 199.244V212.136C180.478 212.765 180.478 213.865 180.478 215.595C180.478 217.167 180.32 218.896 180.163 220.783C180.006 222.669 179.691 224.556 179.377 226.443C179.062 228.329 178.59 229.901 177.961 231.159C177.016 233.203 175.757 234.932 174.184 236.19C172.611 237.448 170.722 238.076 168.519 238.076H168.205V231.788C169.463 231.631 170.408 231.316 171.194 230.687C171.824 230.059 172.453 229.115 172.925 228.172C173.24 227.229 173.554 226.285 173.869 225.027C174.027 223.77 174.341 222.512 174.341 221.097C174.499 219.682 174.499 218.267 174.656 216.695C174.656 215.123 174.656 213.708 174.656 212.45V193.899H193.066V238.234H186.772V199.559H180.478V199.244Z" fill="#1B3259"/>
<path d="M199.047 193.74H205.341V211.978H207.701C209.904 211.978 211.792 212.292 213.208 212.921C214.624 213.55 215.883 214.336 216.827 215.436C217.771 216.537 218.401 217.794 218.715 219.21C219.03 220.467 219.187 222.039 219.187 223.611V226.127C219.187 230.057 218.243 233.044 216.355 235.088C214.467 237.132 211.477 238.233 207.229 238.233H199.047V193.74ZM205.498 217.48V231.63H207.701C208.96 231.63 210.061 231.472 210.691 231C211.477 230.686 211.949 230.057 212.421 229.429C212.736 228.8 213.051 228.013 213.051 227.07C213.208 226.127 213.208 225.184 213.208 224.083C213.208 221.725 212.894 220.153 212.107 219.052C211.635 218.423 211.163 218.109 210.533 217.794C209.904 217.48 208.96 217.323 207.858 217.323H205.498V217.48Z" fill="#1B3259"/>
<path d="M224.068 193.74H242.321V199.715H230.52V211.978H233.037C235.24 211.978 237.128 212.292 238.544 212.921C239.961 213.55 241.22 214.336 242.163 215.436C243.108 216.537 243.737 217.794 243.894 219.21C244.209 220.624 244.366 222.039 244.366 223.611V226.127C244.366 230.057 243.422 233.044 241.534 235.088C239.646 237.132 236.656 238.233 232.408 238.233H224.068V193.74ZM230.52 217.48V231.63H232.88C234.139 231.63 235.24 231.472 235.87 231C236.656 230.686 237.128 230.057 237.443 229.429C237.758 228.8 238.073 228.013 238.073 227.07C238.23 226.127 238.23 225.184 238.23 224.083C238.23 222.983 238.23 222.04 238.073 221.096C237.915 220.31 237.601 219.524 237.286 219.052C236.814 218.581 236.342 218.109 235.712 217.794C235.083 217.48 234.139 217.323 233.037 217.323H230.52V217.48Z" fill="#1B3259"/>
<path d="M249.396 238.075V193.74H258.994C260.725 193.74 262.299 193.898 263.558 194.369C264.816 194.841 266.075 195.627 267.177 196.727C268.278 197.828 269.065 199.243 269.379 200.815C269.851 202.387 270.009 204.431 270.009 207.104C270.009 209.148 269.851 210.72 269.694 212.135C269.537 213.55 268.907 214.807 268.278 216.065C267.334 217.48 266.232 218.581 264.816 219.524C263.4 220.31 261.512 220.781 259.152 220.781H255.847V238.075H249.396ZM255.69 199.715V214.807H258.68C259.939 214.807 261.04 214.65 261.669 214.178C262.299 213.864 262.928 213.235 263.243 212.606C263.558 211.978 263.715 211.191 263.872 210.248C263.872 209.305 264.03 208.362 264.03 207.261C264.03 206.161 264.03 205.217 264.03 204.274C264.03 203.331 263.872 202.545 263.4 201.759C263.085 201.13 262.613 200.501 261.827 200.186C261.197 199.872 260.253 199.557 258.994 199.557H255.69V199.715Z" fill="#1B3259"/>
<path d="M274.888 232.101C275.517 232.101 276.146 232.101 276.933 231.944C277.72 231.787 278.192 231.472 278.664 231.158C278.979 230.843 279.293 230.372 279.765 229.586C280.237 228.8 280.552 227.856 280.867 226.441L281.496 224.083L271.898 193.74H278.664L284.643 214.65H284.8L289.521 193.74H296.287L287.003 227.384C286.374 229.429 285.745 231.158 285.115 232.73C284.486 234.302 283.542 235.56 282.283 236.503C281.339 237.289 280.237 237.918 279.136 238.075C278.034 238.233 276.776 238.39 275.517 238.39H274.573V232.101H274.888Z" fill="#1B3259"/>
<path d="M319.259 225.343V228.016C319.259 229.431 318.945 230.688 318.472 231.946C318 233.204 317.214 234.304 316.269 235.248C315.326 236.191 314.224 236.977 313.123 237.449C311.864 238.077 310.605 238.235 309.189 238.235C307.93 238.235 306.829 238.077 305.57 237.763C304.311 237.449 303.21 236.82 302.265 236.034C301.321 235.248 300.377 234.147 299.748 232.89C299.119 231.632 298.804 229.903 298.804 227.858V203.49C298.804 202.075 299.119 200.66 299.59 199.403C300.062 198.145 300.849 197.044 301.636 196.101C302.58 195.158 303.681 194.529 304.94 193.9C306.199 193.428 307.615 193.114 309.189 193.114C312.178 193.114 314.539 194.057 316.427 196.101C317.371 197.044 318 198.145 318.63 199.56C319.102 200.817 319.417 202.233 319.417 203.805V206.32H313.123V204.276C313.123 203.019 312.808 201.918 312.021 200.975C311.392 200.031 310.29 199.56 309.189 199.56C307.615 199.56 306.514 200.031 306.042 200.975C305.57 201.918 305.255 203.176 305.255 204.748V227.387C305.255 228.645 305.57 229.745 306.042 230.688C306.671 231.632 307.615 231.946 309.031 231.946C309.504 231.946 309.818 231.946 310.448 231.789C310.92 231.632 311.392 231.474 311.864 231.003C312.178 230.688 312.493 230.217 312.808 229.588C313.123 228.959 313.123 228.33 313.123 227.387V225.186H319.259V225.343Z" fill="#1B3259"/>
<path d="M323.197 233.362V227.074L329.491 220.785L323.197 214.497V208.208L335.785 220.785L323.197 233.362ZM334.684 233.362V227.074L340.978 220.785L334.684 214.497V208.208L347.272 220.785L334.684 233.362Z" fill="#1B3259"/>
<path d="M349 178.337H0V180.538H349V178.337Z" fill="#1B3259"/>
</svg>
