<svg width="200" height="137" viewBox="0 0 200 137" fill="none" xmlns="http://www.w3.org/2000/svg">
<path d="M0.118164 51.7267L199.788 51.9389L164.185 26.1111L152.507 21.5115L139.483 20.0963L133.75 14.2938L128.371 13.3739L112.587 0.212284L104.943 0L96.3077 6.22701L87.8848 0.919899L80.4531 0.212284L78.3298 2.54741L82.7181 7.14691L75.8525 13.1616L81.0192 16.6289L59.2192 23.3513L76.0648 5.09483L30.341 32.0549L47.7529 28.5876L47.9653 30.9227L62.8997 28.3754L66.5095 31.6304L39.1176 46.1364L45.9835 37.3621L0.118164 51.7267ZM64.3862 41.3246L84.6291 37.6451L96.3077 18.2565L107.42 29.0829L122.708 36.2298L110.817 23.7758L110.605 10.4019L130.14 34.3901L133.962 25.6156L156.754 29.0829L184.287 46.4194L55.0433 46.8441L64.3862 41.3246Z" fill="#1B3259"/>
<path d="M10.6413 71.8553V79.245C10.6413 79.6055 10.6413 80.2364 10.6413 81.2277C10.6413 82.1288 10.5511 83.1201 10.4609 84.2017C10.3708 85.2831 10.1904 86.3645 10.0101 87.4459C9.82973 88.5273 9.55921 89.4286 9.19854 90.1495C8.65751 91.321 7.93614 92.3124 7.03443 93.0333C6.1327 93.7542 5.05065 94.1147 3.78825 94.1147H3.60791V90.51C4.32928 90.42 4.87032 90.2396 5.32117 89.8791C5.68184 89.5187 6.04254 88.9779 6.31306 88.4373C6.49339 87.8965 6.67373 87.3559 6.85407 86.6349C6.94425 85.914 7.12458 85.1928 7.12458 84.3819C7.21476 83.5709 7.21476 82.7596 7.30492 81.8586C7.30492 80.9573 7.30492 80.1463 7.30492 79.4254V68.701H17.855V94.1147H14.2481V71.8553H10.6413Z" fill="#1B3259"/>
<path d="M18.2142 94.3853H13.9761V72.2158H11.0005V79.3353C11.0005 79.6958 11.0005 80.3267 11.0005 81.318C11.0005 82.219 10.9103 83.2104 10.8201 84.3819C10.73 85.4635 10.5496 86.5449 10.3693 87.6263C10.1889 88.7077 9.91843 89.609 9.55774 90.42C8.92654 91.6817 8.20517 92.6731 7.30347 93.394C6.40176 94.1149 5.22953 94.4754 3.87695 94.4754H3.33594V90.2398H3.60643C4.23765 90.2398 4.77866 89.9694 5.13935 89.699C5.50003 89.3386 5.86072 88.888 6.04106 88.3472C6.2214 87.8967 6.40176 87.2658 6.49191 86.6349C6.58209 85.914 6.76243 85.1931 6.76243 84.3819C6.85261 83.5709 6.85261 82.7599 6.94277 81.8586C6.94277 81.0476 6.94277 80.1463 6.94277 79.4254V68.3407H18.124V94.3853H18.2142ZM14.5172 93.7545H17.583V68.9716H7.66414V79.3353C7.66414 80.1463 7.66414 80.9575 7.66414 81.7685C7.66414 82.6696 7.57398 83.4808 7.4838 84.2918C7.39365 85.103 7.30347 85.914 7.21329 86.6349C7.03295 87.3559 6.85261 87.9868 6.67225 88.5276C6.40176 89.1582 6.04106 89.609 5.59021 90.0595C5.22953 90.42 4.6885 90.6904 3.96713 90.7804V93.8445C5.13935 93.8445 6.13124 93.484 6.94277 92.8532C7.75432 92.2223 8.47569 91.231 9.01672 90.0595C9.3774 89.3386 9.55774 88.5276 9.7381 87.4459C9.91843 86.3645 10.0988 85.2831 10.1889 84.2017C10.2791 83.1203 10.3693 82.129 10.3693 81.2277C10.3693 80.3267 10.3693 79.6958 10.3693 79.2453V71.5849H14.5172V93.7545Z" fill="#1B3259"/>
<path d="M29.8461 94.1147V77.6228H29.756L24.9769 94.1147H21.3701V68.701H24.9769V85.1928H25.067L29.8461 68.701H33.4531V94.1147H29.8461Z" fill="#1B3259"/>
<path d="M33.8124 94.3853H29.5742V79.5154L25.2461 94.3853H21.0981V68.3407H25.3362V83.3005L29.5742 68.3407H33.722V94.3853H33.8124ZM30.1153 93.7545H33.1811V68.9716H30.1153L25.2461 85.4635H24.6148V68.9716H21.549V93.7545H24.6148L29.3939 77.2626H30.0252V93.7545H30.1153Z" fill="#1B3259"/>
<path d="M38.4133 94.1147V98.0801H35.2573V90.8705H37.1508C37.3313 90.42 37.6016 89.8792 37.782 89.3383C37.9623 88.7978 38.1427 88.1669 38.3229 87.536C38.5034 86.9051 38.5935 86.2745 38.6836 85.5533C38.774 84.8324 38.8641 84.2017 38.9542 83.5709C39.0445 83.0301 39.0445 82.4895 39.0445 81.8586C39.0445 81.2277 39.1346 80.5968 39.1346 79.966C39.1346 79.3351 39.1346 78.6142 39.2247 77.9833C39.2247 77.3526 39.2247 76.7218 39.2247 76.0909V68.701H49.6847V90.8705H51.7587V97.99H48.6025V94.0246H38.4133V94.1147ZM42.6513 71.8553V76.0008C42.6513 76.3613 42.6513 76.8118 42.6513 77.4427C42.6513 78.0736 42.5611 78.7945 42.5611 79.5154C42.471 80.2364 42.4708 80.9573 42.3807 81.7683C42.2906 82.4895 42.2906 83.2104 42.2005 83.751C42.1101 84.2017 42.1101 84.7423 41.9299 85.3732C41.8398 86.0041 41.6593 86.6349 41.5692 87.2656C41.3888 87.8965 41.2987 88.5273 41.1185 89.1582C40.938 89.7891 40.7578 90.3297 40.5773 90.8705H46.0778V71.8553H42.6513Z" fill="#1B3259"/>
<path d="M52.0276 98.3505H48.2404V94.3853H38.6822V98.3505H34.9854V90.6003H36.9689C37.1494 90.2398 37.3296 89.7891 37.5101 89.2485C37.6903 88.7077 37.8707 88.0768 37.9609 87.4459C38.1413 86.8153 38.2314 86.1844 38.3215 85.4635C38.4119 84.8326 38.502 84.1117 38.5921 83.4808C38.6822 83.0303 38.6822 82.3994 38.6822 81.8586C38.6822 81.2277 38.7725 80.5968 38.7725 79.9662C38.7725 79.3353 38.7725 78.7044 38.8627 77.9835C38.8627 77.3526 38.8627 76.7218 38.8627 76.0909V68.3407H49.9537V90.51H52.0276V98.3505ZM48.8716 97.7196H51.3964V91.231H49.3224V68.9716H39.4939V76.0909C39.4939 76.7218 39.4939 77.3526 39.4939 77.9835C39.4939 78.6144 39.4939 79.3353 39.4036 79.9662C39.4036 80.5968 39.3134 81.2277 39.3134 81.8586C39.3134 82.4895 39.2233 83.0303 39.2233 83.5709C39.1332 84.2017 39.0429 84.9227 38.9528 85.5535C38.8627 86.2745 38.6822 86.9053 38.5921 87.5362C38.4119 88.1671 38.2314 88.7977 38.0512 89.4286C37.8707 90.0595 37.6903 90.6003 37.42 91.0508L37.3296 91.231H35.6164V97.7196H38.1413V93.7544H48.9618V97.7196H48.8716ZM46.3469 91.1409H40.0348L40.2152 90.6904C40.3955 90.2398 40.5759 89.609 40.7561 89.0681C40.9366 88.4373 41.1168 87.8064 41.2071 87.1757C41.3874 86.5449 41.4775 85.914 41.5678 85.2831C41.6579 84.6523 41.748 84.1117 41.8384 83.6609C41.9285 83.1203 41.9285 82.3994 42.0186 81.6785L42.1991 79.4254C42.2892 78.7044 42.2892 77.9835 42.2892 77.3526C42.2892 76.7218 42.2892 76.2712 42.2892 75.9108V71.4048H46.2566V91.1409H46.3469ZM40.9366 90.6003H45.7157V72.2158H42.9204V76.0909C42.9204 76.4513 42.9204 76.9021 42.9204 77.533C42.9204 78.1636 42.8301 78.8846 42.8301 79.6057L42.6498 81.8586C42.5597 82.5795 42.5597 83.3004 42.4694 83.8413C42.3793 84.2918 42.3793 84.8326 42.1991 85.4635C42.1087 86.0941 41.9285 86.725 41.8384 87.3559C41.6579 87.9867 41.5678 88.6176 41.3874 89.2485C41.2973 89.699 41.1168 90.1496 40.9366 90.6003Z" fill="#1B3259"/>
<path d="M53.564 94.1147V68.701H64.3846V72.1255H57.1709V79.6055H63.4828V83.03H57.1709V90.51H64.3846V94.1147H53.564Z" fill="#1B3259"/>
<path d="M64.7439 94.3853H53.292V68.3407H64.7439V72.3961H57.5302V79.2453H63.8421V83.3005H57.5302V90.1496H64.7439V94.3853ZM53.9232 93.7545H64.2028V90.6904H56.9891V82.5795H63.3012V79.7858H56.9891V71.675H64.2028V68.8813H53.9232V93.7545Z" fill="#1B3259"/>
<path d="M66.8188 94.1147V68.701H72.3193C73.3112 68.701 74.2128 68.7913 74.9341 69.0614C75.6555 69.3319 76.377 69.7826 77.0081 70.4133C77.6393 71.0441 78.0903 71.8553 78.2705 72.7564C78.5411 73.6577 78.6312 74.8291 78.6312 76.3613C78.6312 77.5328 78.5411 78.434 78.451 79.245C78.3606 80.056 78 80.7772 77.6393 81.4981C77.0984 82.3091 76.4672 82.94 75.6555 83.4806C74.844 83.9313 73.762 84.2017 72.4094 84.2017H70.5157V94.1147H66.8188ZM70.4256 72.1255V80.7772H72.1388C72.8602 80.7772 73.4914 80.6869 73.8521 80.4165C74.2128 80.2364 74.5734 79.8759 74.7539 79.5154C74.9341 79.155 75.0245 78.7044 75.1146 78.1636C75.1146 77.6228 75.2047 77.0822 75.2047 76.4514C75.2047 75.8205 75.2047 75.2799 75.2047 74.7391C75.2047 74.1983 75.1146 73.7477 74.844 73.2972C74.6638 72.9368 74.3932 72.5763 73.9422 72.3959C73.5815 72.2158 73.0406 72.0355 72.3193 72.0355H70.4256V72.1255Z" fill="#1B3259"/>
<path d="M70.7849 94.3853H66.5469V68.3407H72.3179C73.3096 68.3407 74.3015 68.5208 75.0228 68.7912C75.8345 69.0617 76.5559 69.6022 77.1871 70.2331C77.8183 70.9541 78.2691 71.7653 78.5397 72.6663C78.8102 73.5676 78.9004 74.8294 78.9004 76.3613C78.9004 77.533 78.81 78.5241 78.7199 79.3353C78.5397 80.1463 78.2691 80.9575 77.8183 81.6785C77.2772 82.5795 76.5559 83.2104 75.7444 83.7512C74.8426 84.2017 73.6705 84.4721 72.3179 84.4721H70.7849V94.3853ZM67.0878 93.7545H70.1536V83.8413H72.3179C73.5801 83.8413 74.6622 83.6609 75.4738 83.2104C76.2853 82.7599 76.9165 82.129 77.3673 81.4081C77.8183 80.7772 78.0887 80.0563 78.179 79.3353C78.2691 78.5241 78.3592 77.623 78.3592 76.4514C78.3592 74.9194 78.2691 73.748 77.9986 72.9367C77.8183 72.1257 77.3673 71.3145 76.8264 70.6839C76.2853 70.053 75.564 69.6022 74.8426 69.3321C74.1213 69.0617 73.2195 68.9716 72.3179 68.9716H67.1781V93.7545H67.0878ZM72.2275 81.0476H70.1536V71.7653H72.3179C73.1293 71.7653 73.6705 71.8553 74.1212 72.1257C74.572 72.3961 74.9327 72.7566 75.1132 73.2071C75.2934 73.6577 75.4738 74.1985 75.4738 74.7391C75.4738 75.2799 75.4738 75.8207 75.4738 76.4514C75.4738 77.0822 75.4738 77.7131 75.3837 78.2539C75.3837 78.7945 75.2033 79.3353 75.0228 79.6958C74.8426 80.1463 74.4819 80.5068 74.0311 80.6871C73.5801 80.9573 73.0392 81.0476 72.2275 81.0476ZM70.7849 80.4167H72.2275C72.9489 80.4167 73.3999 80.3267 73.7606 80.1463C74.1213 79.9662 74.3918 79.6958 74.4819 79.4254C74.6622 79.0649 74.7525 78.7044 74.7525 78.2539C74.7525 77.7131 74.8426 77.1723 74.8426 76.5416C74.8426 75.9108 74.8426 75.3699 74.8426 74.8294C74.8426 74.3786 74.7525 73.9281 74.572 73.5676C74.3918 73.2071 74.2114 72.9367 73.8507 72.7566C73.49 72.5763 73.0392 72.4862 72.3179 72.4862H70.6947V80.4167H70.7849Z" fill="#1B3259"/>
<path d="M81.3357 68.701H84.9427V79.155H86.2953C87.5575 79.155 88.6395 79.3351 89.4512 79.6956C90.2627 80.056 90.984 80.5068 91.5252 81.1376C92.0661 81.7683 92.4267 82.4895 92.5171 83.3005C92.6973 84.0214 92.7876 84.9227 92.7876 85.8237V87.2656C92.7876 89.5187 92.2465 91.2309 91.1645 92.4024C90.0825 93.5741 88.3692 94.205 85.9346 94.205H81.2456V68.701H81.3357ZM85.0328 82.3091V90.4199H86.2953C87.0166 90.4199 87.6479 90.3297 88.0085 90.0595C88.4593 89.8791 88.7299 89.5187 89.0002 89.1582C89.1807 88.7977 89.3611 88.3472 89.3611 87.8064C89.4512 87.2656 89.4512 86.725 89.4512 86.0941C89.4512 85.4633 89.4512 84.9227 89.3611 84.4719C89.2708 84.0214 89.1807 83.6609 88.9101 83.3005C88.6395 82.94 88.3692 82.6696 87.9182 82.4895C87.5575 82.3091 87.0166 82.2191 86.2953 82.2191H85.0328V82.3091ZM94.6811 94.1147V68.701H98.2881V94.1147H94.6811Z" fill="#1B3259"/>
<path d="M98.6488 94.3853H94.4108V68.3407H98.6488V94.3853ZM95.0421 93.7545H98.1079V68.9716H95.0421V93.7545ZM86.025 94.3853H81.0654V68.3407H85.3036V78.7945H86.3857C87.6479 78.7945 88.8203 78.9749 89.6317 79.3353C90.5335 79.6958 91.2549 80.2364 91.7958 80.8672C92.3369 81.5882 92.7877 82.3091 92.878 83.1203C93.0582 83.9313 93.1483 84.7426 93.1483 85.7337V87.1758C93.1483 89.5187 92.6075 91.3213 91.4351 92.4927C90.3531 93.7545 88.4596 94.3853 86.025 94.3853ZM81.6967 93.7545H86.1151C88.3693 93.7545 90.0825 93.2137 91.0744 92.0422C92.0663 90.9608 92.6074 89.2485 92.6074 87.0855V85.6436C92.6074 84.7426 92.5173 83.9313 92.3369 83.1203C92.2468 82.3994 91.8861 81.7685 91.345 81.1377C90.8942 80.5968 90.1728 80.1463 89.4515 79.7858C88.6398 79.4254 87.6479 79.3353 86.3857 79.3353H84.7625V68.9716H81.6967V93.7545ZM86.2953 90.7804H84.6724V82.0389H86.2953C87.0169 82.0389 87.5578 82.129 88.0086 82.3091C88.4596 82.4895 88.8203 82.7599 89.0908 83.2104C89.3612 83.5709 89.4515 84.0214 89.5416 84.5622C89.6317 85.0127 89.6317 85.5536 89.6317 86.2745C89.6317 86.9054 89.6317 87.446 89.5416 87.9868C89.4515 88.5276 89.3612 89.0682 89.0908 89.4286C88.8203 89.8792 88.4596 90.2399 88.0086 90.42C87.7382 90.6003 87.107 90.7804 86.2953 90.7804ZM85.3036 90.1496H86.2953C87.0169 90.1496 87.5578 90.0595 87.9185 89.8792C88.2791 89.699 88.5497 89.4286 88.7301 89.0682C88.9104 88.7077 89.0005 88.3472 89.0908 87.8064C89.1809 87.2658 89.1809 86.725 89.1809 86.0941C89.1809 85.4635 89.1809 84.9227 89.0908 84.4721C89.0005 84.0214 88.9104 83.7512 88.7301 83.3907C88.5497 83.1203 88.2791 82.8499 87.9185 82.7599C87.5578 82.5795 87.0169 82.4895 86.4758 82.4895H85.4839V90.1496H85.3036Z" fill="#1B3259"/>
<path d="M108.475 94.1147V68.701H113.976C114.967 68.701 115.869 68.7913 116.59 69.0614C117.312 69.3319 118.033 69.7826 118.665 70.4133C119.296 71.0441 119.747 71.8553 119.927 72.7564C120.197 73.6577 120.287 74.8291 120.287 76.3613C120.287 77.5328 120.197 78.434 120.107 79.245C120.017 80.056 119.656 80.7772 119.296 81.4981C118.755 82.3091 118.123 82.94 117.312 83.4806C116.5 83.9313 115.418 84.2017 114.066 84.2017H112.172V94.1147H108.475ZM112.082 72.1255V80.7772H113.795C114.516 80.7772 115.148 80.6869 115.508 80.4165C115.869 80.2364 116.23 79.8759 116.41 79.5154C116.59 79.155 116.681 78.7044 116.771 78.1636C116.771 77.6228 116.861 77.0822 116.861 76.4514C116.861 75.8205 116.861 75.2799 116.861 74.7391C116.861 74.1983 116.771 73.7477 116.5 73.2972C116.32 72.9368 116.05 72.5763 115.599 72.3959C115.238 72.2158 114.697 72.0355 113.976 72.0355H112.082V72.1255Z" fill="#1B3259"/>
<path d="M112.353 94.3853H108.115V68.3407H113.886C114.878 68.3407 115.87 68.5208 116.591 68.7912C117.403 69.0617 118.124 69.6022 118.755 70.2331C119.387 70.9541 119.837 71.7653 120.108 72.6663C120.379 73.5676 120.469 74.8294 120.469 76.3613C120.469 77.533 120.379 78.5241 120.289 79.3353C120.108 80.1463 119.837 80.9575 119.387 81.6785C118.846 82.5795 118.124 83.2104 117.313 83.7512C116.411 84.2017 115.239 84.4721 113.886 84.4721H112.353V94.3853ZM108.746 93.7545H111.812V83.8413H113.976C115.239 83.8413 116.321 83.6609 117.133 83.2104C117.944 82.7599 118.575 82.129 119.026 81.4081C119.477 80.7772 119.747 80.0563 119.837 79.3353C119.928 78.5241 120.018 77.623 120.018 76.4514C120.018 74.9194 119.928 73.748 119.657 72.9367C119.477 72.1257 119.026 71.3145 118.485 70.6839C117.944 70.053 117.223 69.6022 116.501 69.3321C115.78 69.0617 114.878 68.9716 113.976 68.9716H108.837V93.7545H108.746ZM113.796 81.0476H111.722V71.7653H113.886C114.698 71.7653 115.239 71.8553 115.69 72.1257C116.141 72.3961 116.501 72.7566 116.682 73.2071C116.862 73.6577 117.042 74.1985 117.042 74.7391C117.042 75.2799 117.042 75.8207 117.042 76.4514C117.042 77.0822 117.042 77.7131 116.952 78.2539C116.952 78.7945 116.772 79.3353 116.591 79.6958C116.411 80.1463 116.05 80.5068 115.6 80.6871C115.239 80.9573 114.608 81.0476 113.796 81.0476ZM112.353 80.4167H113.796C114.517 80.4167 114.968 80.3267 115.329 80.1463C115.69 79.9662 115.96 79.6958 116.05 79.4254C116.231 79.0649 116.321 78.7044 116.321 78.2539C116.321 77.7131 116.411 77.1723 116.411 76.5416C116.411 75.9108 116.411 75.3699 116.411 74.8294C116.411 74.3786 116.321 73.9281 116.141 73.5676C115.96 73.2071 115.78 72.9367 115.419 72.7566C115.058 72.5763 114.608 72.4862 113.886 72.4862H112.263V80.4167H112.353Z" fill="#1B3259"/>
<path d="M122.722 74.6497C122.722 73.6584 122.903 72.7571 123.263 71.9461C123.624 71.1351 124.075 70.5042 124.706 69.9634C125.247 69.4228 125.968 69.0623 126.69 68.7919C127.411 68.5215 128.133 68.4315 128.854 68.4315C129.575 68.4315 130.297 68.5215 131.018 68.7919C131.739 69.0623 132.37 69.4228 133.002 69.9634C133.543 70.5042 133.994 71.1351 134.354 71.9461C134.715 72.7571 134.895 73.6584 134.895 74.6497V88.0775C134.895 89.1589 134.715 90.0602 134.354 90.8712C133.994 91.5921 133.543 92.223 133.002 92.7638C132.37 93.3044 131.739 93.6649 131.018 93.9353C130.297 94.2057 129.575 94.2957 128.854 94.2957C128.133 94.2957 127.411 94.2057 126.69 93.9353C125.968 93.6649 125.337 93.3044 124.706 92.7638C124.075 92.223 123.624 91.5921 123.263 90.8712C122.903 90.1502 122.722 89.1589 122.722 88.0775V74.6497ZM126.419 88.0775C126.419 88.9788 126.69 89.6094 127.141 90.0602C127.591 90.5107 128.223 90.6911 128.854 90.6911C129.485 90.6911 130.116 90.5107 130.567 90.0602C131.018 89.6094 131.288 88.9788 131.288 88.0775V74.6497C131.288 73.7484 131.018 73.1175 130.567 72.667C130.116 72.2165 129.485 72.0361 128.854 72.0361C128.223 72.0361 127.591 72.2165 127.141 72.667C126.69 73.1175 126.419 73.7484 126.419 74.6497V88.0775Z" fill="#1B3259"/>
<path d="M128.855 94.5653C128.043 94.5653 127.322 94.3849 126.51 94.1145C125.789 93.8443 125.067 93.3936 124.436 92.853C123.805 92.3122 123.354 91.6813 122.903 90.8703C122.543 90.0593 122.362 89.068 122.362 87.9866V74.6488C122.362 73.5674 122.543 72.6662 122.903 71.7649C123.264 70.9539 123.805 70.233 124.436 69.6921C125.067 69.1516 125.698 68.7911 126.51 68.5207C128.043 67.9799 129.576 67.9799 131.109 68.5207C131.83 68.7911 132.552 69.2416 133.183 69.6921C133.814 70.233 134.265 70.9539 134.625 71.7649C134.986 72.5761 135.167 73.5674 135.167 74.6488V88.0766C135.167 89.158 134.986 90.1494 134.625 90.9604C134.265 91.7716 133.724 92.4023 133.183 92.9431C132.552 93.4839 131.83 93.9344 131.109 94.2048C130.387 94.475 129.666 94.5653 128.855 94.5653ZM128.855 68.7911C128.133 68.7911 127.412 68.8811 126.781 69.1516C126.059 69.4217 125.428 69.7822 124.887 70.233C124.346 70.6835 123.895 71.3144 123.534 72.1254C123.174 72.8463 122.994 73.7476 122.994 74.7389V88.1667C122.994 89.158 123.174 90.0593 123.534 90.7803C123.895 91.5012 124.346 92.1321 124.887 92.5826C125.428 93.1232 126.059 93.4837 126.781 93.664C128.133 94.2048 129.576 94.2048 130.929 93.664C131.65 93.3936 132.281 93.0331 132.822 92.5826C133.363 92.1321 133.814 91.5012 134.175 90.7803C134.535 90.0593 134.716 89.158 134.716 88.1667V74.6488C134.716 73.6575 134.535 72.8463 134.175 72.0353C133.814 71.3144 133.363 70.6835 132.822 70.1429C132.281 69.6921 131.65 69.3317 130.929 69.0613C130.297 68.8811 129.576 68.7911 128.855 68.7911ZM128.855 90.9604C128.133 90.9604 127.502 90.69 126.961 90.2394C126.42 89.7889 126.15 89.068 126.15 88.0766V74.6488C126.15 73.6575 126.42 72.9366 126.961 72.4858C127.502 72.0353 128.133 71.7649 128.855 71.7649C129.576 71.7649 130.207 72.0353 130.748 72.4858C131.289 72.9366 131.56 73.6575 131.56 74.6488V88.0766C131.56 89.068 131.289 89.7889 130.748 90.2394C130.297 90.69 129.576 90.9604 128.855 90.9604ZM128.855 72.3958C128.223 72.3958 127.772 72.5761 127.322 72.9366C126.871 73.297 126.69 73.8376 126.69 74.6488V88.0766C126.69 88.8876 126.871 89.4285 127.322 89.7889C127.772 90.1494 128.223 90.3295 128.855 90.3295C129.486 90.3295 129.937 90.1494 130.387 89.7889C130.838 89.4285 131.019 88.8876 131.019 88.0766V74.6488C131.019 73.8376 130.838 73.297 130.387 72.9366C129.937 72.5761 129.486 72.3958 128.855 72.3958Z" fill="#1B3259"/>
<path d="M149.775 86.8153V88.3472C149.775 89.1582 149.595 89.8791 149.325 90.6003C149.054 91.3212 148.603 91.9521 148.062 92.4927C147.521 93.0335 146.89 93.484 146.259 93.7544C145.537 94.1149 144.816 94.205 144.004 94.205C143.283 94.205 142.652 94.1149 141.931 93.9346C141.209 93.7544 140.578 93.394 140.037 92.9432C139.496 92.4927 138.955 91.8618 138.594 91.1409C138.233 90.42 138.053 89.4286 138.053 88.2572V74.2885C138.053 73.4775 138.233 72.6663 138.504 71.9454C138.775 71.2245 139.225 70.5936 139.676 70.053C140.217 69.5122 140.848 69.1517 141.57 68.7912C142.291 68.5208 143.103 68.3407 144.004 68.3407C145.718 68.3407 147.07 68.8813 148.152 70.053C148.693 70.5936 149.054 71.2245 149.415 72.0357C149.685 72.7566 149.866 73.5676 149.866 74.4689V75.9108H146.259V74.7391C146.259 74.0181 146.078 73.3873 145.628 72.8467C145.267 72.3059 144.636 72.0357 144.004 72.0357C143.103 72.0357 142.472 72.3059 142.201 72.8467C141.931 73.3873 141.75 74.1084 141.75 75.0095V87.9867C141.75 88.7077 141.931 89.3386 142.201 89.8791C142.562 90.42 143.103 90.6003 143.914 90.6003C144.185 90.6003 144.365 90.6003 144.726 90.51C144.996 90.4199 145.267 90.3299 145.537 90.0595C145.718 89.8791 145.898 89.609 146.078 89.2485C146.259 88.888 146.259 88.5276 146.259 87.9867V86.725H149.775V86.8153Z" fill="#1B3259"/>
<path d="M144.006 94.5654C143.284 94.5654 142.563 94.4753 141.841 94.295C141.12 94.1149 140.399 93.7544 139.767 93.2136C139.136 92.673 138.685 92.0421 138.234 91.2309C137.874 90.4199 137.693 89.4286 137.693 88.2571V74.2885C137.693 73.3872 137.874 72.5762 138.144 71.8553C138.415 71.1344 138.866 70.4134 139.407 69.8726C139.948 69.332 140.579 68.8813 141.39 68.6109C142.112 68.3407 143.014 68.1603 143.915 68.1603C145.719 68.1603 147.161 68.7912 148.334 69.9627C148.875 70.5035 149.326 71.2244 149.596 72.0354C149.867 72.8466 150.047 73.6576 150.047 74.5589V76.2712H145.809V74.739C145.809 74.1082 145.629 73.5676 145.268 73.0268C144.907 72.5762 144.456 72.3959 143.825 72.3959C143.014 72.3959 142.563 72.5762 142.292 73.1171C142.022 73.6576 141.841 74.2885 141.841 75.0995V88.0768C141.841 88.7076 142.022 89.3385 142.292 89.789C142.563 90.2396 143.014 90.4199 143.735 90.4199C143.915 90.4199 144.186 90.4199 144.456 90.3299C144.727 90.2396 144.907 90.1495 145.088 89.9694C145.268 89.789 145.448 89.6089 145.538 89.3385C145.629 89.0681 145.719 88.7076 145.719 88.1668V86.6349H149.957V88.5273C149.957 89.3385 149.777 90.1495 149.506 90.8705C149.235 91.5914 148.785 92.2223 148.243 92.8531C147.703 93.3939 147.071 93.8445 146.35 94.2049C145.628 94.4753 144.817 94.5654 144.006 94.5654ZM143.915 68.7912C143.104 68.7912 142.292 68.9716 141.661 69.2417C140.94 69.5122 140.399 69.8726 139.858 70.4134C139.407 70.864 138.956 71.4948 138.685 72.1257C138.415 72.7566 138.234 73.5676 138.234 74.2885V88.2571C138.234 89.3385 138.415 90.3299 138.776 90.9607C139.136 91.6817 139.587 92.2223 140.128 92.673C140.669 93.1235 141.3 93.3939 141.932 93.5741C143.374 93.9345 144.907 93.9345 146.079 93.3939C146.711 93.1235 147.342 92.673 147.793 92.1322C148.243 91.5914 148.694 91.0508 148.965 90.3299C149.235 89.699 149.416 88.9781 149.416 88.2571V86.9954H146.35V87.8967C146.35 88.4372 146.26 88.8878 146.079 89.2485C145.899 89.6089 145.719 89.8791 145.448 90.1495C145.178 90.3299 144.907 90.51 144.546 90.6C144.276 90.6903 143.915 90.7804 143.645 90.7804C142.743 90.7804 142.022 90.51 141.661 89.8791C141.3 89.3385 141.12 88.6176 141.12 87.8967V75.0094C141.12 74.1082 141.3 73.2972 141.571 72.7566C141.932 72.1257 142.653 71.7652 143.645 71.7652C144.456 71.7652 145.088 72.0354 145.538 72.6663C145.989 73.2071 146.17 73.928 146.17 74.739V75.6403H149.235V74.5589C149.235 73.7477 149.055 72.9367 148.785 72.2158C148.514 71.4948 148.153 70.864 147.612 70.3231C146.891 69.2417 145.538 68.7912 143.915 68.7912Z" fill="#1B3259"/>
<path d="M163.93 86.8153V88.3472C163.93 89.1582 163.75 89.8791 163.479 90.6003C163.208 91.3212 162.758 91.9521 162.217 92.4927C161.676 93.0335 161.044 93.484 160.413 93.7544C159.692 94.1149 158.97 94.205 158.159 94.205C157.437 94.205 156.806 94.1149 156.085 93.9346C155.363 93.7544 154.732 93.394 154.191 92.9432C153.65 92.4927 153.109 91.8618 152.749 91.1409C152.388 90.42 152.208 89.4286 152.208 88.2572V74.2885C152.208 73.4775 152.388 72.6663 152.659 71.9454C152.929 71.2245 153.38 70.5936 153.831 70.053C154.372 69.5122 155.003 69.1517 155.724 68.7912C156.446 68.5208 157.257 68.3407 158.159 68.3407C159.872 68.3407 161.225 68.8813 162.307 70.053C162.848 70.5936 163.208 71.2245 163.569 72.0357C163.84 72.7566 164.02 73.5676 164.02 74.4689V75.9108H160.413V74.7391C160.413 74.0181 160.233 73.3873 159.782 72.8467C159.421 72.3059 158.79 72.0357 158.159 72.0357C157.257 72.0357 156.626 72.3059 156.355 72.8467C156.085 73.3873 155.905 74.1084 155.905 75.0095V87.9867C155.905 88.7077 156.085 89.3386 156.355 89.8791C156.716 90.42 157.257 90.6003 158.069 90.6003C158.339 90.6003 158.52 90.6003 158.88 90.51C159.151 90.4199 159.421 90.3299 159.692 90.0595C159.872 89.8791 160.052 89.609 160.233 89.2485C160.413 88.888 160.413 88.5276 160.413 87.9867V86.725H163.93V86.8153Z" fill="#1B3259"/>
<path d="M158.16 94.5654C157.438 94.5654 156.717 94.4753 155.996 94.295C155.274 94.1149 154.553 93.7544 153.922 93.2136C153.29 92.673 152.84 92.0421 152.389 91.2309C152.028 90.4199 151.848 89.4286 151.848 88.2571V74.2885C151.848 73.3872 152.028 72.5762 152.298 71.8553C152.569 71.1344 153.02 70.4134 153.561 69.8726C154.102 69.332 154.733 68.8813 155.544 68.6109C156.266 68.3407 157.168 68.1603 158.069 68.1603C159.873 68.1603 161.315 68.7912 162.488 69.9627C163.029 70.5035 163.48 71.2244 163.75 72.0354C164.021 72.8466 164.201 73.6576 164.201 74.5589V76.2712H159.963V74.739C159.963 74.1082 159.783 73.5676 159.422 73.0268C159.061 72.5762 158.61 72.3959 157.979 72.3959C157.168 72.3959 156.717 72.5762 156.446 73.1171C156.176 73.6576 155.996 74.2885 155.996 75.0995V88.0768C155.996 88.7076 156.176 89.3385 156.446 89.789C156.717 90.2396 157.168 90.4199 157.889 90.4199C158.069 90.4199 158.34 90.4199 158.61 90.3299C158.881 90.2396 159.061 90.1495 159.242 89.9694C159.422 89.789 159.602 89.6089 159.692 89.3385C159.783 89.0681 159.873 88.7076 159.873 88.1668V86.6349H164.111V88.5273C164.111 89.3385 163.931 90.1495 163.66 90.8705C163.389 91.5914 162.939 92.2223 162.398 92.8531C161.857 93.3939 161.225 93.8445 160.504 94.2049C159.873 94.4753 159.061 94.5654 158.16 94.5654ZM158.069 68.7912C157.258 68.7912 156.446 68.9716 155.815 69.2417C155.094 69.5122 154.553 69.8726 154.012 70.4134C153.561 70.864 153.11 71.4948 152.84 72.1257C152.569 72.7566 152.389 73.5676 152.389 74.2885V88.2571C152.389 89.3385 152.569 90.3299 152.93 90.9607C153.29 91.6817 153.741 92.2223 154.282 92.673C154.823 93.1235 155.454 93.3939 156.086 93.5741C157.528 93.9345 159.061 93.9345 160.233 93.3939C160.865 93.1235 161.496 92.673 161.947 92.1322C162.398 91.5914 162.849 91.0508 163.119 90.3299C163.389 89.699 163.57 88.9781 163.57 88.2571V86.9954H160.504V87.8967C160.504 88.4372 160.414 88.8878 160.233 89.2485C160.053 89.6089 159.873 89.8791 159.602 90.1495C159.332 90.3299 159.061 90.51 158.701 90.6C158.43 90.6903 158.069 90.7804 157.799 90.7804C156.897 90.7804 156.176 90.51 155.815 89.8791C155.454 89.3385 155.274 88.6176 155.274 87.8967V75.0094C155.274 74.1082 155.454 73.2972 155.725 72.7566C156.086 72.1257 156.807 71.7652 157.799 71.7652C158.61 71.7652 159.242 72.0354 159.692 72.6663C160.143 73.2071 160.324 73.928 160.324 74.739V75.6403H163.389V74.5589C163.389 73.7477 163.209 72.9367 162.939 72.2158C162.668 71.4948 162.307 70.864 161.767 70.3231C161.045 69.2417 159.692 68.7912 158.069 68.7912Z" fill="#1B3259"/>
<path d="M175.474 94.1147V77.6228H175.384L170.605 94.1147H166.999V68.701H170.605V85.1928H170.695L175.474 68.701H179.081V94.1147H175.474Z" fill="#1B3259"/>
<path d="M179.348 94.3853H175.11V79.5154L170.782 94.3853H166.634V68.3407H170.872V83.3005L175.201 68.3407H179.348V94.3853ZM175.742 93.7545H178.808V68.9716H175.652L170.872 85.4635H170.241V68.9716H167.175V93.7545H170.241L175.02 77.2626H175.652V93.7545H175.742Z" fill="#1B3259"/>
<path d="M190.983 94.1147V77.6228L186.204 94.1147H182.597V68.701H186.204V85.1928H186.294L191.073 68.701H194.68V94.1147H190.983Z" fill="#1B3259"/>
<path d="M194.951 94.3853H190.713V79.5154L186.385 94.3853H182.237V68.3407H186.475V83.3005L190.804 68.3407H194.951V94.3853ZM191.344 93.7545H194.41V68.9716H191.344L186.475 85.4635H185.844V68.9716H182.778V93.7545H185.844L190.623 77.2626H191.254V93.7545H191.344Z" fill="#1B3259"/>
<path d="M14.97 114.48C14.6093 114.48 14.3388 114.48 14.1585 114.57C13.9781 114.66 13.7076 114.841 13.5273 115.021C13.3469 115.201 13.1666 115.471 13.1666 115.832C13.0764 116.102 13.0764 116.463 12.9862 116.823L12.6255 119.797C12.6255 120.068 12.5354 120.428 12.5354 120.699C12.4452 120.969 12.4452 121.149 12.355 121.419C12.2649 121.69 12.2649 121.87 12.1747 122.05C11.9944 122.411 11.814 122.681 11.6337 122.951C11.4533 123.222 11.273 123.402 11.0025 123.582L14.7897 136.469H11.0926L7.93665 125.114H5.86271V136.469H2.25586V111.056H5.86271V121.96H7.03494C7.48579 121.96 7.84647 121.87 8.0268 121.78C8.29732 121.69 8.47768 121.509 8.65802 121.239C8.83835 121.059 8.92853 120.789 9.01869 120.518C9.10887 120.248 9.10887 119.977 9.19905 119.617L9.55972 116.553C9.55972 116.463 9.6499 116.283 9.6499 115.922C9.6499 115.652 9.74006 115.291 9.83024 114.931C9.92042 114.57 10.1008 114.12 10.1909 113.759C10.3713 113.399 10.5516 112.948 10.8221 112.588C11.273 112.047 11.814 111.596 12.4452 111.326C13.0764 111.056 13.8879 110.965 14.7897 110.965V114.48H14.97Z" fill="#1B3259"/>
<path d="M22.4523 114.211V121.601C22.4523 121.961 22.4523 122.592 22.4523 123.584C22.4523 124.485 22.3621 125.476 22.272 126.557C22.1818 127.639 22.0014 128.72 21.8211 129.802C21.6408 130.883 21.3702 131.784 21.0096 132.505C20.4685 133.677 19.7472 134.668 18.8454 135.389C17.9437 136.11 16.8617 136.471 15.5993 136.471H15.4189V132.866C16.1403 132.776 16.6813 132.596 17.1322 132.235C17.4929 131.875 17.8536 131.334 18.1241 130.793C18.3044 130.252 18.4848 129.712 18.6651 128.991C18.7553 128.27 18.9356 127.549 18.9356 126.738C19.0258 125.927 19.0258 125.116 19.116 124.214C19.116 123.313 19.116 122.502 19.116 121.781V111.147H29.6661V136.561H26.0591V114.391H22.4523V114.211Z" fill="#1B3259"/>
<path d="M33.5424 133.045C33.903 133.045 34.2637 133.045 34.7145 132.955C35.1653 132.865 35.4358 132.685 35.7064 132.505C35.8866 132.324 36.0671 132.054 36.3376 131.603C36.6082 131.153 36.7884 130.612 36.9689 129.801L37.3295 128.449L31.8291 111.056H35.7064L39.1329 123.042H39.223L41.9282 111.056H45.8055L40.4855 130.342C40.1248 131.513 39.7642 132.505 39.4035 133.406C39.0428 134.307 38.5017 135.028 37.7803 135.569C37.2392 136.019 36.6082 136.38 35.977 136.47C35.3457 136.56 34.6244 136.65 33.903 136.65H33.3619V133.045H33.5424Z" fill="#1B3259"/>
<path d="M47.52 111.056H57.9798V114.481H51.2171V121.51H52.6598C53.922 121.51 55.0043 121.69 55.8157 122.051C56.6272 122.411 57.3486 122.862 57.8897 123.493C58.4308 124.124 58.7915 124.844 58.8816 125.656C59.0618 126.467 59.1521 127.278 59.1521 128.179V129.621C59.1521 131.874 58.611 133.586 57.529 134.758C56.447 135.929 54.7337 136.56 52.2991 136.56H47.52V111.056ZM51.2171 124.664V132.775H52.5697C53.291 132.775 53.922 132.685 54.2829 132.414C54.7337 132.234 55.0043 131.874 55.2746 131.513C55.4551 131.153 55.6353 130.702 55.6353 130.162C55.7256 129.621 55.7256 129.08 55.7256 128.449C55.7256 127.818 55.7256 127.278 55.6353 126.737C55.5452 126.287 55.365 125.836 55.1845 125.566C54.9139 125.295 54.6436 125.025 54.2829 124.844C53.922 124.664 53.3811 124.574 52.7499 124.574H51.2171V124.664Z" fill="#1B3259"/>
<path d="M74.5721 119.349V122.954L70.9654 126.559L74.5721 130.164V133.768L67.3584 126.559L74.5721 119.349ZM81.1546 119.349V122.954L77.5478 126.559L81.1546 130.164V133.768L73.9409 126.559L81.1546 119.349Z" fill="#1B3259"/>
<path d="M87.0139 121.961H91.5225V117.455C91.5225 116.554 91.342 115.924 91.0717 115.293C90.7108 114.752 90.1699 114.481 89.2681 114.481C88.5467 114.481 88.0058 114.752 87.6452 115.293C87.2845 115.833 87.104 116.464 87.104 117.185V118.357H83.4971V117.275C83.4971 116.374 83.6775 115.563 83.9481 114.662C84.3088 113.76 84.6694 113.13 85.2103 112.499C85.7514 111.958 86.3827 111.508 87.104 111.237C87.8254 110.967 88.5467 110.787 89.3584 110.787C90.1699 110.787 90.9813 110.967 91.7027 111.237C92.424 111.508 93.0553 111.958 93.5964 112.499C94.1373 113.04 94.4982 113.67 94.7685 114.391C95.0391 115.112 95.2195 115.924 95.2195 116.734V130.343C95.2195 131.514 95.0391 132.505 94.6784 133.407C94.3177 134.308 93.7766 134.939 93.2357 135.389C92.6946 135.84 92.0634 136.2 91.342 136.381C90.6207 136.561 89.8993 136.651 89.2681 136.651C88.4566 136.651 87.7353 136.471 87.0139 136.2C86.2926 135.93 85.6613 135.479 85.1202 134.939C84.5793 134.398 84.2186 133.767 83.9481 133.046C83.6775 132.325 83.4971 131.604 83.4971 130.793V129.261H87.104V130.523C87.104 131.064 87.1941 131.424 87.2845 131.785C87.3746 132.145 87.5548 132.415 87.8254 132.595C88.0959 132.776 88.2762 132.956 88.6368 133.046C88.9074 133.136 89.178 133.136 89.4485 133.136C90.26 133.136 90.8912 132.866 91.1618 132.325C91.5225 131.785 91.7027 131.154 91.7027 130.433V125.116H87.1941V121.961H87.0139Z" fill="#1B3259"/>
<path d="M103.426 114.211V121.601C103.426 121.961 103.426 122.592 103.426 123.584C103.426 124.485 103.335 125.476 103.245 126.557C103.155 127.639 102.975 128.72 102.794 129.802C102.614 130.883 102.344 131.784 101.983 132.505C101.442 133.677 100.72 134.668 99.8186 135.389C98.917 136.11 97.8348 136.471 96.5725 136.471H96.3921V132.866C97.1134 132.776 97.6546 132.596 98.1053 132.235C98.466 131.875 98.8267 131.334 99.0973 130.793C99.2777 130.252 99.4579 129.712 99.6384 128.991C99.7285 128.27 99.9089 127.549 99.9089 126.738C99.9991 125.927 99.9991 125.116 100.089 124.214C100.089 123.313 100.089 122.502 100.089 121.781V111.147H110.639V136.561H107.032V114.391H103.426V114.211Z" fill="#1B3259"/>
<path d="M114.067 111.056H117.674V121.51H119.026C120.289 121.51 121.371 121.69 122.182 122.051C122.994 122.411 123.715 122.862 124.256 123.493C124.797 124.124 125.158 124.844 125.338 125.656C125.519 126.377 125.609 127.278 125.609 128.179V129.621C125.609 131.874 125.068 133.586 123.986 134.758C122.904 135.929 121.19 136.56 118.756 136.56H114.067V111.056ZM117.764 124.664V132.775H119.026C119.748 132.775 120.379 132.685 120.739 132.414C121.19 132.234 121.461 131.874 121.731 131.513C121.912 131.153 122.092 130.702 122.092 130.162C122.182 129.621 122.182 129.08 122.182 128.449C122.182 127.098 122.002 126.196 121.551 125.566C121.281 125.205 121.01 125.025 120.649 124.844C120.289 124.664 119.748 124.574 119.116 124.574H117.764V124.664Z" fill="#1B3259"/>
<path d="M128.406 111.056H138.866V114.481H132.103V121.51H133.546C134.808 121.51 135.89 121.69 136.701 122.051C137.513 122.411 138.235 122.862 138.775 123.493C139.317 124.124 139.677 124.844 139.767 125.656C139.948 126.467 140.038 127.278 140.038 128.179V129.621C140.038 131.874 139.497 133.586 138.415 134.758C137.333 135.929 135.619 136.56 133.185 136.56H128.406V111.056ZM132.103 124.664V132.775H133.455C134.177 132.775 134.808 132.685 135.169 132.414C135.619 132.234 135.89 131.874 136.07 131.513C136.251 131.153 136.431 130.702 136.431 130.162C136.521 129.621 136.521 129.08 136.521 128.449C136.521 127.818 136.521 127.278 136.431 126.737C136.341 126.287 136.161 125.836 135.98 125.566C135.71 125.295 135.439 125.025 135.079 124.844C134.718 124.664 134.177 124.574 133.546 124.574H132.103V124.664Z" fill="#1B3259"/>
<path d="M142.92 136.47V111.056H148.421C149.413 111.056 150.315 111.146 151.036 111.417C151.757 111.687 152.479 112.138 153.11 112.768C153.741 113.399 154.192 114.21 154.372 115.112C154.643 116.013 154.733 117.184 154.733 118.717C154.733 119.888 154.643 120.789 154.553 121.6C154.462 122.411 154.102 123.132 153.741 123.853C153.2 124.664 152.569 125.295 151.757 125.836C150.946 126.287 149.864 126.557 148.511 126.557H146.617V136.47H142.92ZM146.527 114.481V123.132H148.241C148.962 123.132 149.593 123.042 149.954 122.772C150.315 122.592 150.675 122.231 150.855 121.871C151.036 121.51 151.126 121.059 151.216 120.519C151.216 119.978 151.306 119.437 151.306 118.807C151.306 118.176 151.306 117.635 151.306 117.094C151.306 116.553 151.216 116.103 150.946 115.652C150.765 115.292 150.495 114.931 150.044 114.751C149.683 114.571 149.142 114.391 148.421 114.391H146.527V114.481Z" fill="#1B3259"/>
<path d="M157.529 133.045C157.889 133.045 158.25 133.045 158.701 132.955C159.152 132.865 159.422 132.685 159.693 132.505C159.873 132.324 160.053 132.054 160.324 131.603C160.595 131.153 160.775 130.612 160.955 129.801L161.316 128.449L155.815 111.056H159.693L163.119 123.042H163.209L165.915 111.056H169.792L164.472 130.342C164.111 131.513 163.751 132.505 163.39 133.406C163.029 134.307 162.488 135.028 161.767 135.569C161.226 136.019 160.595 136.38 159.963 136.47C159.332 136.56 158.611 136.65 157.889 136.65H157.348V133.045H157.529Z" fill="#1B3259"/>
<path d="M182.957 129.172V130.704C182.957 131.515 182.776 132.236 182.506 132.957C182.235 133.678 181.784 134.308 181.243 134.849C180.702 135.39 180.071 135.841 179.44 136.111C178.719 136.471 177.997 136.562 177.186 136.562C176.464 136.562 175.833 136.471 175.112 136.291C174.39 136.111 173.759 135.75 173.218 135.3C172.677 134.849 172.136 134.218 171.775 133.497C171.415 132.776 171.234 131.785 171.234 130.613V116.645C171.234 115.834 171.415 115.023 171.685 114.302C171.956 113.581 172.407 112.95 172.858 112.409C173.398 111.869 174.03 111.508 174.751 111.148C175.472 110.877 176.284 110.697 177.186 110.697C178.899 110.697 180.251 111.238 181.334 112.409C181.875 112.95 182.235 113.581 182.596 114.392C182.867 115.113 183.047 115.924 183.047 116.825V118.267H179.44V117.096C179.44 116.375 179.26 115.744 178.809 115.203C178.448 114.662 177.817 114.392 177.186 114.392C176.284 114.392 175.653 114.662 175.382 115.203C175.112 115.744 174.931 116.465 174.931 117.366V130.343C174.931 131.064 175.112 131.695 175.382 132.236C175.743 132.776 176.284 132.957 177.096 132.957C177.366 132.957 177.547 132.957 177.907 132.867C178.178 132.776 178.448 132.686 178.719 132.416C178.899 132.236 179.079 131.965 179.26 131.605C179.44 131.244 179.44 130.884 179.44 130.343V129.082H182.957V129.172Z" fill="#1B3259"/>
<path d="M185.213 133.768V130.164L188.82 126.559L185.213 122.954V119.349L192.427 126.559L185.213 133.768ZM191.796 133.768V130.164L195.403 126.559L191.796 122.954V119.349L199.01 126.559L191.796 133.768Z" fill="#1B3259"/>
<path d="M200 102.227H0V103.488H200V102.227Z" fill="#1B3259"/>
</svg>
