<svg width="20" height="18" viewBox="0 0 20 18" fill="none" xmlns="http://www.w3.org/2000/svg">
<path fill-rule="evenodd" clip-rule="evenodd" d="M11 16V14.9291C12.9835 14.6454 14.6988 13.5302 15.7813 11.9478C18.4954 11.5739 20 9.22284 20 6V3C20 1.89543 19.1046 1 18 1H16.7324C16.3866 0.402199 15.7403 0 15 0H5C4.25972 0 3.61337 0.402199 3.26756 1H2C0.89543 1 0 1.89543 0 3V6C0 9.22284 1.50458 11.5739 4.21866 11.9478C5.30124 13.5302 7.0165 14.6454 9 14.9291V16H8C6.89543 16 6 16.8954 6 18H14C14 16.8954 13.1046 16 12 16H11ZM2 3H3V8C3 8.45775 3.04394 8.90525 3.12783 9.33849C2.39028 8.67464 2 7.53126 2 6V3ZM17 3V8C17 8.45775 16.9561 8.90525 16.8722 9.33849C17.6097 8.67464 18 7.53126 18 6V3H17ZM5 8V2H15V8C15 10.7614 12.7614 13 10 13C7.23858 13 5 10.7614 5 8Z" fill="#212529"/>
</svg>
