<svg width="140" height="140" viewBox="0 0 140 140" fill="none" xmlns="http://www.w3.org/2000/svg">
<path d="M47.125 81.4531C44.5208 81.4531 42.4062 80.8438 40.7812 79.625C39.1562 78.4062 38.3438 76.8333 38.3438 74.9062C38.3438 73.4479 38.8125 72.1927 39.75 71.1406C40.6979 70.0781 41.9375 69.401 43.4688 69.1094V69.0312C42.1875 68.6979 41.1615 68.0729 40.3906 67.1562C39.6198 66.2292 39.2344 65.1562 39.2344 63.9375C39.2344 62.2188 39.974 60.8021 41.4531 59.6875C42.9427 58.5625 44.8333 58 47.125 58C49.4271 58 51.3125 58.5625 52.7812 59.6875C54.2604 60.8021 55 62.224 55 63.9531C55 65.1615 54.6146 66.224 53.8438 67.1406C53.0833 68.0573 52.0625 68.6875 50.7812 69.0312V69.1094C52.3229 69.4115 53.5625 70.0938 54.5 71.1562C55.4479 72.2083 55.9219 73.4583 55.9219 74.9062C55.9219 76.8333 55.1042 78.4062 53.4688 79.625C51.8333 80.8438 49.7188 81.4531 47.125 81.4531ZM43.8125 77.3125C44.6771 78.0208 45.7812 78.375 47.125 78.375C48.4688 78.375 49.5729 78.0208 50.4375 77.3125C51.3021 76.6042 51.7344 75.7031 51.7344 74.6094C51.7344 73.5052 51.3021 72.599 50.4375 71.8906C49.5833 71.1823 48.4792 70.8281 47.125 70.8281C45.7812 70.8281 44.6771 71.1875 43.8125 71.9062C42.9479 72.6146 42.5156 73.5156 42.5156 74.6094C42.5156 75.7031 42.9479 76.6042 43.8125 77.3125ZM47.125 67.75C48.2604 67.75 49.1927 67.4375 49.9219 66.8125C50.651 66.1771 51.0156 65.375 51.0156 64.4062C51.0156 63.4271 50.651 62.625 49.9219 62C49.1927 61.3646 48.2604 61.0469 47.125 61.0469C45.9792 61.0469 45.0417 61.3646 44.3125 62C43.5833 62.625 43.2188 63.4271 43.2188 64.4062C43.2188 65.375 43.5833 66.1771 44.3125 66.8125C45.0417 67.4375 45.9792 67.75 47.125 67.75ZM67.3594 81.4531C64.6094 81.4531 62.4479 80.4062 60.875 78.3125C59.3125 76.2083 58.5312 73.3385 58.5312 69.7031C58.5312 66.0885 59.3177 63.2344 60.8906 61.1406C62.4635 59.0469 64.6198 58 67.3594 58C70.099 58 72.25 59.0469 73.8125 61.1406C75.375 63.224 76.1562 66.0729 76.1562 69.6875C76.1562 73.3125 75.375 76.1823 73.8125 78.2969C72.25 80.401 70.099 81.4531 67.3594 81.4531ZM67.3594 78.1562C68.849 78.1562 70.0052 77.4115 70.8281 75.9219C71.6615 74.4323 72.0781 72.3594 72.0781 69.7031C72.0781 67.0677 71.6615 65.0104 70.8281 63.5312C69.9948 62.0417 68.8385 61.2969 67.3594 61.2969C65.8802 61.2969 64.7135 62.0417 63.8594 63.5312C63.0156 65.0208 62.5938 67.0729 62.5938 69.6875C62.5938 72.3438 63.0104 74.4219 63.8438 75.9219C64.6875 77.4115 65.8594 78.1562 67.3594 78.1562ZM86.8594 59.6406C87.7656 60.6719 88.2188 62.0677 88.2188 63.8281C88.2188 65.5885 87.7656 66.9896 86.8594 68.0312C85.9531 69.0729 84.7396 69.5938 83.2188 69.5938C81.6979 69.5938 80.4844 69.0729 79.5781 68.0312C78.6823 66.9896 78.2344 65.5885 78.2344 63.8281C78.2344 62.0677 78.6823 60.6719 79.5781 59.6406C80.4844 58.599 81.6979 58.0781 83.2188 58.0781C84.7396 58.0781 85.9531 58.599 86.8594 59.6406ZM83.2188 67.1406C83.8021 67.1406 84.2552 66.849 84.5781 66.2656C84.9115 65.6719 85.0781 64.8594 85.0781 63.8281C85.0781 62.7865 84.9115 61.974 84.5781 61.3906C84.2552 60.7969 83.8021 60.5 83.2188 60.5C82.6458 60.5 82.1927 60.7969 81.8594 61.3906C81.5365 61.974 81.375 62.7865 81.375 63.8281C81.375 64.8594 81.5365 65.6719 81.8594 66.2656C82.1927 66.849 82.6458 67.1406 83.2188 67.1406ZM83.5312 81H80.125L88.8594 69.0469L96.6094 58.4531H99.9844L91.4844 70.0938L83.5312 81ZM100.531 71.3281C101.438 72.3698 101.891 73.7708 101.891 75.5312C101.891 77.2917 101.438 78.6927 100.531 79.7344C99.625 80.7656 98.4115 81.2812 96.8906 81.2812C95.3698 81.2812 94.1562 80.7656 93.25 79.7344C92.3542 78.6927 91.9062 77.2917 91.9062 75.5312C91.9062 73.7708 92.3542 72.3698 93.25 71.3281C94.1562 70.2865 95.3698 69.7656 96.8906 69.7656C98.4115 69.7656 99.625 70.2865 100.531 71.3281ZM95.5312 77.9531C95.8646 78.5469 96.3177 78.8438 96.8906 78.8438C97.4635 78.8438 97.9167 78.5469 98.25 77.9531C98.5833 77.3594 98.75 76.5469 98.75 75.5156C98.75 74.4844 98.5833 73.6719 98.25 73.0781C97.9167 72.4844 97.4635 72.1875 96.8906 72.1875C96.3177 72.1875 95.8646 72.4844 95.5312 73.0781C95.2083 73.6719 95.0469 74.4844 95.0469 75.5156C95.0469 76.5469 95.2083 77.3594 95.5312 77.9531Z" fill="#212529" fill-opacity="0.4"/>
<path d="M140 70C140 84.3691 135.578 98.3902 127.334 110.159C119.091 121.929 107.425 130.876 93.9208 135.786C80.4167 140.696 65.7286 141.332 51.8508 137.606C37.9731 133.881 25.578 125.975 16.3486 114.961C7.11926 103.948 1.50272 90.3616 0.261604 76.0462C-0.979511 61.7307 2.21494 47.3802 9.41122 34.9429C16.6075 22.5057 27.4569 12.5843 40.4865 6.52598C53.516 0.467643 68.0943 -1.43416 82.2419 1.07878L79.963 13.9092C68.449 11.8641 56.5847 13.4118 45.9807 18.3423C35.3768 23.2729 26.5471 31.3472 20.6905 41.4692C14.8338 51.5911 12.2341 63.2701 13.2441 74.9206C14.2542 86.5711 18.8252 97.6284 26.3364 106.591C33.8476 115.554 43.9352 121.989 55.2295 125.021C66.5238 128.053 78.4775 127.535 89.4677 123.539C100.458 119.543 109.952 112.262 116.661 102.683C123.37 93.105 126.969 81.6942 126.969 70H140Z" fill="#84CD8B" fill-opacity="0.2"/>
<path d="M82.2254 1.07584C96.3115 3.57435 109.294 10.3288 119.425 20.4297C129.555 30.5307 136.348 43.4931 138.888 57.5718C141.428 71.6505 139.593 86.1693 133.631 99.1737C127.669 112.178 117.865 123.043 105.54 130.307C93.2153 137.57 78.9608 140.883 64.696 139.799C50.4311 138.715 36.8409 133.286 25.7551 124.244C14.6692 115.201 6.62007 102.979 2.69134 89.2235C-1.23739 75.4676 -0.857053 60.8382 3.78115 47.305L16.1085 51.5299C12.3337 62.5438 12.0242 74.4498 15.2216 85.6449C18.4189 96.84 24.9696 106.787 33.9917 114.146C43.0138 121.505 54.0741 125.923 65.6834 126.805C77.2927 127.687 88.8935 124.991 98.924 119.08C108.955 113.169 116.933 104.326 121.785 93.7427C126.638 83.1592 128.131 71.3432 126.064 59.8854C123.997 48.4276 118.468 37.8783 110.224 29.6578C101.979 21.4372 91.4133 15.9402 79.9495 13.9068L82.2254 1.07584Z" fill="#84CD8B"/>
</svg>
