<svg width="32" height="32" viewBox="0 0 32 32" fill="none" xmlns="http://www.w3.org/2000/svg">
<path d="M31.9166 12.275C31.7071 11.627 31.1324 11.1668 30.4524 11.1055L21.2164 10.2668L17.5642 1.71853C17.2949 1.09205 16.6816 0.686523 16.0002 0.686523C15.3188 0.686523 14.7055 1.09205 14.4362 1.72L10.784 10.2668L1.54642 11.1055C0.867694 11.1682 0.294437 11.627 0.0837383 12.275C-0.12696 12.9229 0.0676246 13.6336 0.581066 14.0816L7.56245 20.2044L5.5038 29.2727C5.35316 29.9395 5.61196 30.6287 6.16519 31.0286C6.46256 31.2435 6.81047 31.3528 7.16131 31.3528C7.46381 31.3528 7.76387 31.2713 8.03316 31.1102L16.0002 26.3486L23.9642 31.1102C24.547 31.4608 25.2817 31.4288 25.8337 31.0286C26.3871 30.6275 26.6457 29.938 26.4951 29.2727L24.4364 20.2044L31.4178 14.0829C31.9312 13.6336 32.1273 12.9241 31.9166 12.275Z" fill="#FF8A00"/>
</svg>
