<svg width="140" height="140" viewBox="0 0 140 140" fill="none" xmlns="http://www.w3.org/2000/svg">
<path d="M47.3594 81V62.2969H47.2656L41.4375 66.3906V62.5938L47.3281 58.4531H51.3125V81H47.3594ZM64.9531 81.4531C62.6302 81.4531 60.7031 80.8229 59.1719 79.5625C57.6406 78.2917 56.8333 76.6562 56.75 74.6562H60.5312C60.6562 75.6979 61.1302 76.5469 61.9531 77.2031C62.7865 77.8594 63.7969 78.1875 64.9844 78.1875C66.3281 78.1875 67.4167 77.7656 68.25 76.9219C69.0938 76.0781 69.5156 74.9896 69.5156 73.6562C69.5156 72.3021 69.0938 71.1979 68.25 70.3438C67.4167 69.4792 66.3385 69.0469 65.0156 69.0469C64.099 69.0469 63.2604 69.2448 62.5 69.6406C61.75 70.0365 61.1667 70.5885 60.75 71.2969H57.0938L58.2656 58.4531H72.0781V61.75H61.4531L60.875 68.3438H60.9688C61.4375 67.6146 62.1146 67.0417 63 66.625C63.8854 66.1979 64.8802 65.9844 65.9844 65.9844C68.1406 65.9844 69.9167 66.6979 71.3125 68.125C72.7083 69.5417 73.4062 71.349 73.4062 73.5469C73.4062 75.8906 72.6198 77.7969 71.0469 79.2656C69.4844 80.724 67.4531 81.4531 64.9531 81.4531ZM83.8281 59.6406C84.7344 60.6719 85.1875 62.0677 85.1875 63.8281C85.1875 65.5885 84.7344 66.9896 83.8281 68.0312C82.9219 69.0729 81.7083 69.5938 80.1875 69.5938C78.6667 69.5938 77.4531 69.0729 76.5469 68.0312C75.651 66.9896 75.2031 65.5885 75.2031 63.8281C75.2031 62.0677 75.651 60.6719 76.5469 59.6406C77.4531 58.599 78.6667 58.0781 80.1875 58.0781C81.7083 58.0781 82.9219 58.599 83.8281 59.6406ZM80.1875 67.1406C80.7708 67.1406 81.224 66.849 81.5469 66.2656C81.8802 65.6719 82.0469 64.8594 82.0469 63.8281C82.0469 62.7865 81.8802 61.974 81.5469 61.3906C81.224 60.7969 80.7708 60.5 80.1875 60.5C79.6146 60.5 79.1615 60.7969 78.8281 61.3906C78.5052 61.974 78.3438 62.7865 78.3438 63.8281C78.3438 64.8594 78.5052 65.6719 78.8281 66.2656C79.1615 66.849 79.6146 67.1406 80.1875 67.1406ZM80.5 81H77.0938L85.8281 69.0469L93.5781 58.4531H96.9531L88.4531 70.0938L80.5 81ZM97.5 71.3281C98.4062 72.3698 98.8594 73.7708 98.8594 75.5312C98.8594 77.2917 98.4062 78.6927 97.5 79.7344C96.5938 80.7656 95.3802 81.2812 93.8594 81.2812C92.3385 81.2812 91.125 80.7656 90.2188 79.7344C89.3229 78.6927 88.875 77.2917 88.875 75.5312C88.875 73.7708 89.3229 72.3698 90.2188 71.3281C91.125 70.2865 92.3385 69.7656 93.8594 69.7656C95.3802 69.7656 96.5938 70.2865 97.5 71.3281ZM92.5 77.9531C92.8333 78.5469 93.2865 78.8438 93.8594 78.8438C94.4323 78.8438 94.8854 78.5469 95.2188 77.9531C95.5521 77.3594 95.7188 76.5469 95.7188 75.5156C95.7188 74.4844 95.5521 73.6719 95.2188 73.0781C94.8854 72.4844 94.4323 72.1875 93.8594 72.1875C93.2865 72.1875 92.8333 72.4844 92.5 73.0781C92.1771 73.6719 92.0156 74.4844 92.0156 75.5156C92.0156 76.5469 92.1771 77.3594 92.5 77.9531Z" fill="#212529" fill-opacity="0.4"/>
<path d="M140 70C140 84.3691 135.578 98.3902 127.334 110.159C119.091 121.929 107.425 130.876 93.9208 135.786C80.4167 140.696 65.7286 141.332 51.8508 137.606C37.9731 133.881 25.578 125.975 16.3486 114.961C7.11926 103.948 1.50272 90.3616 0.261604 76.0462C-0.979511 61.7307 2.21494 47.3802 9.41122 34.9429C16.6075 22.5057 27.4569 12.5843 40.4865 6.52598C53.516 0.467643 68.0943 -1.43416 82.2419 1.07878L79.963 13.9092C68.449 11.8641 56.5847 13.4118 45.9807 18.3423C35.3768 23.2729 26.5471 31.3472 20.6905 41.4692C14.8338 51.5911 12.2341 63.2701 13.2441 74.9206C14.2542 86.5711 18.8252 97.6284 26.3364 106.591C33.8476 115.554 43.9352 121.989 55.2295 125.021C66.5238 128.053 78.4775 127.535 89.4677 123.539C100.458 119.543 109.952 112.262 116.661 102.683C123.37 93.105 126.969 81.6942 126.969 70H140Z" fill="#84CD8B" fill-opacity="0.2"/>
<path d="M82.2254 1.07584C98.4389 3.9517 113.12 12.4513 123.686 25.0803C134.253 37.7094 140.029 53.6593 140 70.1258L126.969 70.1024C126.993 56.7013 122.292 43.7206 113.692 33.4426C105.092 23.1646 93.1447 16.2473 79.9495 13.9068L82.2254 1.07584Z" fill="#84CD8B"/>
</svg>
