<svg width="395" height="122" viewBox="0 0 395 122" fill="none" xmlns="http://www.w3.org/2000/svg">
<rect width="395" height="122" rx="8" fill="#84CD8B"/>
<path d="M31.3594 50V31.2969H31.2656L25.4375 35.3906V31.5938L31.3281 27.4531H35.3125V50H31.3594ZM49.1094 50.4531C46.3594 50.4531 44.1979 49.4062 42.625 47.3125C41.0625 45.2083 40.2812 42.3385 40.2812 38.7031C40.2812 35.0885 41.0677 32.2344 42.6406 30.1406C44.2135 28.0469 46.3698 27 49.1094 27C51.849 27 54 28.0469 55.5625 30.1406C57.125 32.224 57.9062 35.0729 57.9062 38.6875C57.9062 42.3125 57.125 45.1823 55.5625 47.2969C54 49.401 51.849 50.4531 49.1094 50.4531ZM49.1094 47.1562C50.599 47.1562 51.7552 46.4115 52.5781 44.9219C53.4115 43.4323 53.8281 41.3594 53.8281 38.7031C53.8281 36.0677 53.4115 34.0104 52.5781 32.5312C51.7448 31.0417 50.5885 30.2969 49.1094 30.2969C47.6302 30.2969 46.4635 31.0417 45.6094 32.5312C44.7656 34.0208 44.3438 36.0729 44.3438 38.6875C44.3438 41.3438 44.7604 43.4219 45.5938 44.9219C46.4375 46.4115 47.6094 47.1562 49.1094 47.1562ZM69.4219 50.4531C66.6719 50.4531 64.5104 49.4062 62.9375 47.3125C61.375 45.2083 60.5938 42.3385 60.5938 38.7031C60.5938 35.0885 61.3802 32.2344 62.9531 30.1406C64.526 28.0469 66.6823 27 69.4219 27C72.1615 27 74.3125 28.0469 75.875 30.1406C77.4375 32.224 78.2188 35.0729 78.2188 38.6875C78.2188 42.3125 77.4375 45.1823 75.875 47.2969C74.3125 49.401 72.1615 50.4531 69.4219 50.4531ZM69.4219 47.1562C70.9115 47.1562 72.0677 46.4115 72.8906 44.9219C73.724 43.4323 74.1406 41.3594 74.1406 38.7031C74.1406 36.0677 73.724 34.0104 72.8906 32.5312C72.0573 31.0417 70.901 30.2969 69.4219 30.2969C67.9427 30.2969 66.776 31.0417 65.9219 32.5312C65.0781 34.0208 64.6562 36.0729 64.6562 38.6875C64.6562 41.3438 65.0729 43.4219 65.9062 44.9219C66.75 46.4115 67.9219 47.1562 69.4219 47.1562Z" fill="white"/>
<path d="M34.4062 79H32.6562V74.0078H26.8672V79H25.1172V67.7266H26.8672V72.4922H32.6562V67.7266H34.4062V79ZM42.7969 78.0156C42.0885 78.776 41.1432 79.1562 39.9609 79.1562C38.7786 79.1562 37.8333 78.776 37.125 78.0156C36.4167 77.25 36.0625 76.2083 36.0625 74.8906C36.0625 73.5781 36.4167 72.5417 37.125 71.7812C37.8333 71.0156 38.7786 70.6328 39.9609 70.6328C41.1432 70.6328 42.0885 71.0156 42.7969 71.7812C43.5052 72.5417 43.8594 73.5781 43.8594 74.8906C43.8594 76.2083 43.5052 77.25 42.7969 78.0156ZM39.9609 77.7656C40.6328 77.7656 41.1641 77.513 41.5547 77.0078C41.9453 76.5026 42.1406 75.7969 42.1406 74.8906C42.1406 73.9896 41.9427 73.2865 41.5469 72.7812C41.1562 72.276 40.6276 72.0234 39.9609 72.0234C39.2943 72.0234 38.763 72.276 38.3672 72.7812C37.9766 73.2865 37.7812 73.9896 37.7812 74.8906C37.7812 75.7969 37.9766 76.5026 38.3672 77.0078C38.763 77.513 39.2943 77.7656 39.9609 77.7656ZM48.7031 72.0078H46.9766V74.1641H48.5391C49.4922 74.1641 49.9688 73.7995 49.9688 73.0703C49.9688 72.7318 49.8594 72.4714 49.6406 72.2891C49.4219 72.1016 49.1094 72.0078 48.7031 72.0078ZM48.6484 75.3438H46.9766V77.7734H48.8359C49.3151 77.7734 49.6797 77.6719 49.9297 77.4688C50.1797 77.2604 50.3047 76.9583 50.3047 76.5625C50.3047 75.75 49.7526 75.3438 48.6484 75.3438ZM45.3125 79V70.7812H49.0469C49.849 70.7812 50.4766 70.9688 50.9297 71.3438C51.388 71.7135 51.6172 72.224 51.6172 72.875C51.6172 73.3021 51.4818 73.6875 51.2109 74.0312C50.9453 74.3698 50.6146 74.5755 50.2188 74.6484V74.7109C50.75 74.7839 51.1771 74.9948 51.5 75.3438C51.8229 75.6875 51.9844 76.1172 51.9844 76.6328C51.9844 77.3568 51.724 77.9323 51.2031 78.3594C50.6875 78.7865 49.9844 79 49.0938 79H45.3125ZM60.8047 79V70.7812H62.4766V79H60.8047ZM56.5859 74.6406H55.1641V77.6719H56.5859C57.0703 77.6719 57.4557 77.5339 57.7422 77.2578C58.0339 76.9766 58.1797 76.6094 58.1797 76.1562C58.1797 75.6979 58.0339 75.3307 57.7422 75.0547C57.4505 74.7786 57.0651 74.6406 56.5859 74.6406ZM53.4844 79V70.7812H55.1641V73.3203H56.7344C57.6875 73.3203 58.4453 73.5781 59.0078 74.0938C59.5755 74.6042 59.8594 75.2917 59.8594 76.1562C59.8594 77.026 59.5755 77.7188 59.0078 78.2344C58.4453 78.7448 57.6875 79 56.7344 79H53.4844ZM67.3828 75.9766H67.3438L65.5234 79H63.6953L66.4062 74.8984L63.7344 70.7812H65.625L67.4219 73.7578H67.4531L69.2266 70.7812H71.0859L68.3906 74.8438L71.0547 79H69.1953L67.3828 75.9766ZM30.2266 98V91.1172H26.5859V98H24.9062V89.7812H31.9141V98H30.2266ZM40.1094 97.0156C39.401 97.776 38.4557 98.1562 37.2734 98.1562C36.0911 98.1562 35.1458 97.776 34.4375 97.0156C33.7292 96.25 33.375 95.2083 33.375 93.8906C33.375 92.5781 33.7292 91.5417 34.4375 90.7812C35.1458 90.0156 36.0911 89.6328 37.2734 89.6328C38.4557 89.6328 39.401 90.0156 40.1094 90.7812C40.8177 91.5417 41.1719 92.5781 41.1719 93.8906C41.1719 95.2083 40.8177 96.25 40.1094 97.0156ZM37.2734 96.7656C37.9453 96.7656 38.4766 96.513 38.8672 96.0078C39.2578 95.5026 39.4531 94.7969 39.4531 93.8906C39.4531 92.9896 39.2552 92.2865 38.8594 91.7812C38.4688 91.276 37.9401 91.0234 37.2734 91.0234C36.6068 91.0234 36.0755 91.276 35.6797 91.7812C35.2891 92.2865 35.0938 92.9896 35.0938 93.8906C35.0938 94.7969 35.2891 95.5026 35.6797 96.0078C36.0755 96.513 36.6068 96.7656 37.2734 96.7656ZM44.8125 94.2578C44.7812 94.7474 44.7318 95.1797 44.6641 95.5547C44.5964 95.9297 44.4974 96.2812 44.3672 96.6094C44.237 96.9323 44.0781 97.2005 43.8906 97.4141C43.7031 97.6224 43.4688 97.7865 43.1875 97.9062C42.9115 98.0208 42.5911 98.0781 42.2266 98.0781C41.9974 98.0781 41.8073 98.0495 41.6562 97.9922V96.5078C41.7969 96.5495 41.9453 96.5703 42.1016 96.5703C42.4766 96.5703 42.7526 96.3672 42.9297 95.9609C43.1068 95.5547 43.2214 94.9635 43.2734 94.1875L43.5547 89.7812H49.25V98H47.5703V91.1172H45.0391L44.8125 94.2578ZM54.1641 93.6406H52.7422V96.6719H54.1641C54.6484 96.6719 55.0339 96.5339 55.3203 96.2578C55.612 95.9766 55.7578 95.6094 55.7578 95.1562C55.7578 94.6979 55.612 94.3307 55.3203 94.0547C55.0286 93.7786 54.6432 93.6406 54.1641 93.6406ZM51.0625 98V89.7812H52.7422V92.3203H54.3125C55.2656 92.3203 56.0234 92.5781 56.5859 93.0938C57.1536 93.6042 57.4375 94.2917 57.4375 95.1562C57.4375 96.026 57.1536 96.7188 56.5859 97.2344C56.0234 97.7448 55.2656 98 54.3125 98H51.0625ZM61.7969 98.1562C60.8333 98.1562 60.0417 97.9349 59.4219 97.4922C58.8073 97.0495 58.4635 96.4505 58.3906 95.6953H60.0547C60.138 96.0495 60.3307 96.3229 60.6328 96.5156C60.9349 96.7031 61.3229 96.7969 61.7969 96.7969C62.3281 96.7969 62.7396 96.6849 63.0312 96.4609C63.3281 96.237 63.4766 95.9401 63.4766 95.5703C63.4766 94.7734 62.9193 94.375 61.8047 94.375H60.6016V93.1328H61.7812C62.7396 93.1328 63.2188 92.7734 63.2188 92.0547C63.2188 91.7266 63.099 91.4661 62.8594 91.2734C62.6198 91.0755 62.2682 90.9766 61.8047 90.9766C61.3516 90.9766 60.9818 91.0677 60.6953 91.25C60.4089 91.4323 60.237 91.6849 60.1797 92.0078H58.5625C58.651 91.2734 58.9818 90.6953 59.5547 90.2734C60.1328 89.8464 60.8802 89.6328 61.7969 89.6328C62.776 89.6328 63.5312 89.8359 64.0625 90.2422C64.599 90.6432 64.8672 91.1927 64.8672 91.8906C64.8672 92.3125 64.7474 92.6849 64.5078 93.0078C64.2682 93.3307 63.9505 93.5417 63.5547 93.6406V93.7031C64.0755 93.8229 64.4714 94.0443 64.7422 94.3672C65.0182 94.6901 65.1562 95.0885 65.1562 95.5625C65.1562 96.3438 64.849 96.9714 64.2344 97.4453C63.625 97.9193 62.8125 98.1562 61.7969 98.1562ZM73.0156 97.0156C72.3073 97.776 71.362 98.1562 70.1797 98.1562C68.9974 98.1562 68.0521 97.776 67.3438 97.0156C66.6354 96.25 66.2812 95.2083 66.2812 93.8906C66.2812 92.5781 66.6354 91.5417 67.3438 90.7812C68.0521 90.0156 68.9974 89.6328 70.1797 89.6328C71.362 89.6328 72.3073 90.0156 73.0156 90.7812C73.724 91.5417 74.0781 92.5781 74.0781 93.8906C74.0781 95.2083 73.724 96.25 73.0156 97.0156ZM70.1797 96.7656C70.8516 96.7656 71.3828 96.513 71.7734 96.0078C72.1641 95.5026 72.3594 94.7969 72.3594 93.8906C72.3594 92.9896 72.1615 92.2865 71.7656 91.7812C71.375 91.276 70.8464 91.0234 70.1797 91.0234C69.513 91.0234 68.9818 91.276 68.5859 91.7812C68.1953 92.2865 68 92.9896 68 93.8906C68 94.7969 68.1953 95.5026 68.5859 96.0078C68.9818 96.513 69.513 96.7656 70.1797 96.7656ZM78.9219 91.0078H77.1953V93.1641H78.7578C79.7109 93.1641 80.1875 92.7995 80.1875 92.0703C80.1875 91.7318 80.0781 91.4714 79.8594 91.2891C79.6406 91.1016 79.3281 91.0078 78.9219 91.0078ZM78.8672 94.3438H77.1953V96.7734H79.0547C79.5339 96.7734 79.8984 96.6719 80.1484 96.4688C80.3984 96.2604 80.5234 95.9583 80.5234 95.5625C80.5234 94.75 79.9714 94.3438 78.8672 94.3438ZM75.5312 98V89.7812H79.2656C80.0677 89.7812 80.6953 89.9688 81.1484 90.3438C81.6068 90.7135 81.8359 91.224 81.8359 91.875C81.8359 92.3021 81.7005 92.6875 81.4297 93.0312C81.1641 93.3698 80.8333 93.5755 80.4375 93.6484V93.7109C80.9688 93.7839 81.3958 93.9948 81.7188 94.3438C82.0417 94.6875 82.2031 95.1172 82.2031 95.6328C82.2031 96.3568 81.9427 96.9323 81.4219 97.3594C80.9062 97.7865 80.2031 98 79.3125 98H75.5312ZM86.5859 96.8047C87.1797 96.8047 87.6771 96.625 88.0781 96.2656C88.4844 95.901 88.6875 95.4531 88.6875 94.9219V94.2734L86.6641 94.3984C86.1589 94.4349 85.7682 94.5599 85.4922 94.7734C85.2214 94.9818 85.0859 95.263 85.0859 95.6172C85.0859 95.9766 85.2214 96.2656 85.4922 96.4844C85.7682 96.6979 86.1328 96.8047 86.5859 96.8047ZM86.1172 98.1406C85.3099 98.1406 84.651 97.9115 84.1406 97.4531C83.6354 96.9948 83.3828 96.3984 83.3828 95.6641C83.3828 94.9453 83.6484 94.375 84.1797 93.9531C84.7109 93.526 85.4635 93.2865 86.4375 93.2344L88.6875 93.1016V92.4688C88.6875 92.0104 88.5417 91.6536 88.25 91.3984C87.9583 91.138 87.5547 91.0078 87.0391 91.0078C86.5599 91.0078 86.1693 91.1146 85.8672 91.3281C85.5703 91.5417 85.3828 91.8359 85.3047 92.2109H83.7109C83.7578 91.4505 84.0859 90.8307 84.6953 90.3516C85.3047 89.8724 86.1068 89.6328 87.1016 89.6328C88.0964 89.6328 88.888 89.8776 89.4766 90.3672C90.0703 90.8568 90.3672 91.513 90.3672 92.3359V98H88.75V96.6484H88.7109C88.4766 97.1016 88.1198 97.4635 87.6406 97.7344C87.1667 98.0052 86.6589 98.1406 86.1172 98.1406ZM98.2656 89.7812V91.1172H95.6875V98H94.0078V91.1172H91.4297V89.7812H98.2656ZM104.219 91.5859C103.849 91.1901 103.372 90.9922 102.789 90.9922C102.206 90.9922 101.721 91.1927 101.336 91.5938C100.951 91.9896 100.737 92.5026 100.695 93.1328H104.805C104.784 92.4974 104.589 91.9818 104.219 91.5859ZM104.797 95.5859H106.398C106.279 96.3411 105.893 96.9583 105.242 97.4375C104.591 97.9167 103.797 98.1562 102.859 98.1562C101.656 98.1562 100.708 97.7786 100.016 97.0234C99.3281 96.263 98.9844 95.2318 98.9844 93.9297C98.9844 92.638 99.3281 91.599 100.016 90.8125C100.708 90.026 101.633 89.6328 102.789 89.6328C103.924 89.6328 104.826 90.0052 105.492 90.75C106.159 91.4896 106.492 92.4844 106.492 93.7344V94.3125H100.688V94.4141C100.688 95.1328 100.888 95.7083 101.289 96.1406C101.69 96.5729 102.227 96.7891 102.898 96.7891C103.372 96.7891 103.779 96.6797 104.117 96.4609C104.456 96.2422 104.682 95.9505 104.797 95.5859ZM110.125 94.2578C110.094 94.7474 110.044 95.1797 109.977 95.5547C109.909 95.9297 109.81 96.2812 109.68 96.6094C109.549 96.9323 109.391 97.2005 109.203 97.4141C109.016 97.6224 108.781 97.7865 108.5 97.9062C108.224 98.0208 107.904 98.0781 107.539 98.0781C107.31 98.0781 107.12 98.0495 106.969 97.9922V96.5078C107.109 96.5495 107.258 96.5703 107.414 96.5703C107.789 96.5703 108.065 96.3672 108.242 95.9609C108.419 95.5547 108.534 94.9635 108.586 94.1875L108.867 89.7812H114.562V98H112.883V91.1172H110.352L110.125 94.2578ZM121.25 91.5859C120.88 91.1901 120.404 90.9922 119.82 90.9922C119.237 90.9922 118.753 91.1927 118.367 91.5938C117.982 91.9896 117.768 92.5026 117.727 93.1328H121.836C121.815 92.4974 121.62 91.9818 121.25 91.5859ZM121.828 95.5859H123.43C123.31 96.3411 122.924 96.9583 122.273 97.4375C121.622 97.9167 120.828 98.1562 119.891 98.1562C118.688 98.1562 117.74 97.7786 117.047 97.0234C116.359 96.263 116.016 95.2318 116.016 93.9297C116.016 92.638 116.359 91.599 117.047 90.8125C117.74 90.026 118.664 89.6328 119.82 89.6328C120.956 89.6328 121.857 90.0052 122.523 90.75C123.19 91.4896 123.523 92.4844 123.523 93.7344V94.3125H117.719V94.4141C117.719 95.1328 117.919 95.7083 118.32 96.1406C118.721 96.5729 119.258 96.7891 119.93 96.7891C120.404 96.7891 120.81 96.6797 121.148 96.4609C121.487 96.2422 121.714 95.9505 121.828 95.5859ZM126.633 98H124.969V89.7812H126.633V95.5391H126.695L130.492 89.7812H132.156V98H130.492V92.2266H130.43L126.633 98ZM126.086 86.1719H127.227C127.232 86.6198 127.367 86.9922 127.633 87.2891C127.898 87.5807 128.247 87.7266 128.68 87.7266C129.117 87.7266 129.469 87.5807 129.734 87.2891C130 86.9922 130.135 86.6198 130.141 86.1719H131.281C131.281 86.9115 131.042 87.5104 130.562 87.9688C130.083 88.4219 129.456 88.6484 128.68 88.6484C127.909 88.6484 127.284 88.4219 126.805 87.9688C126.326 87.5104 126.086 86.9115 126.086 86.1719Z" fill="white" fill-opacity="0.8"/>
<path d="M182 95C183.591 91.8102 189.541 85.0277 200.614 83.4161C211.686 81.8044 222.727 76.0292 226.864 73.3431C233.864 69.146 250.823 61.2555 262.659 63.2701C277.455 65.7883 284.614 77.8759 294.159 77.8759C303.705 77.8759 307.045 54.708 318.023 53.1971C329 51.6861 347.136 45.1387 357.159 38.5912C365.177 33.3533 369.727 28.0146 371 26" stroke="white" stroke-width="3"/>
</svg>
